<?xml version="1.0" standalone="no"?><!DOCTYPE svg PUBLIC "-//W3C//DTD SVG 1.1//EN" "http://www.w3.org/Graphics/SVG/1.1/DTD/svg11.dtd" ><svg xmlns="http://www.w3.org/2000/svg"><metadata></metadata><defs><font id="FontForge 2.0 : WenQuanYi Zen Hei Mono : 4-3-2009" horiz-adv-x="1024"><font-face font-family="WenQuanYi Zen Hei Mono" font-weight="500" font-stretch="normal" units-per-em="1024" panose-1="2 0 6 3 0 0 0 0 0 0" ascent="986" descent="-256" x-height="0" bbox="-51 -217 1043 881" underline-thickness="51" underline-position="-230" unicode-range="U+0020-9467" /><missing-glyph horiz-adv-x="374" d="M34 0 l0 682 l272 0 l0 -682 l-272 0 ZM68 34 l204 0 l0 614 l-204 0 l0 -614 Z" /><glyph glyph-name="periodcentered" unicode="·" d="M176 314 q0 -34 -32 -48 q-11 -5 -22 -5 q-34 0 -48 32 q-4 10 -4 21 q0 35 32 47 q11 5 21 5 q32 0 47 -29 q6 -10 6 -23 Z" /><glyph glyph-name="ellipsis" unicode="&#x2026;" d="M911 366 q0 -69 -70 -69 q-68 0 -68 69 q0 69 73 69 q41 0 58 -39 q7 -14 7 -30 ZM580 366 q0 -69 -69 -69 q-69 0 -69 69 q0 69 73 69 q39 0 57 -38 q8 -15 8 -31 ZM250 366 q0 -69 -69 -69 q-69 0 -69 69 q0 69 73 69 q39 0 58 -38 q7 -15 7 -31 Z" /><glyph glyph-name="uni300A" unicode="&#x300a;" d="M967 -67 l-31 -18 l-252 452 l252 452 l31 -18 l-242 -434 l242 -434 ZM866 -76 l-31 -17 l-256 460 l256 460 l31 -17 l-246 -443 l246 -443 Z" /><glyph glyph-name="uni300B" unicode="&#x300b;" d="M450 367 l-256 -460 l-32 17 l247 443 l-247 443 l32 17 l256 -460 ZM344 367 l-252 -452 l-31 18 l242 434 l-242 434 l31 18 l252 -452 Z" /><glyph glyph-name="uni3010" unicode="&#x3010;" d="M895 -116 l-254 0 l0 966 l254 0 q-143 -211 -143 -486 q0 -259 143 -480 Z" /><glyph glyph-name="uni3011" unicode="&#x3011;" d="M383 -116 l-254 0 q144 219 144 480 q0 271 -144 486 l254 0 l0 -966 Z" /><glyph glyph-name="uni4E00" unicode="&#x4e00;" d="M1003 429 q-6 -53 0 -105 q-151 9 -303 9 l-612 0 q-46 0 -91 -9 q6 52 0 105 q45 -9 91 -9 l612 0 q152 0 303 9 Z" /><glyph glyph-name="uni4E01" unicode="&#x4e01;" d="M276 -47 q97 -13 157 -4 q20 5 21 25 l0 730 l-372 0 q-43 0 -85 -8 q6 49 0 98 q42 -8 85 -8 l618 0 q151 0 303 8 q-6 -49 0 -98 q-152 8 -303 8 l-156 0 l-1 -752 q-6 -75 -68 -97 q-48 -16 -111 -7 q-37 3 -48 3 l-32 0 q4 51 -8 102 Z" /><glyph glyph-name="uni4E03" unicode="&#x4e03;" d="M533 -152 q-58 0 -95.5 39.5 q-37.5 39.5 -37.5 102.5 l0 409 l-311 -64 q-42 -8 -82 -25 q-4 50 -19 97 q42 0 84 9 l328 67 l0 273 q0 47 -9 93 q54 -5 108 0 q-9 -46 -9 -93 l0 -254 l202 41 q151 31 301 70 q4 -49 19 -96 q-152 -23 -304 -54 l-218 -45 l0 -428 q0 -22 12.5 -38.5 q12.5 -16.5 31.5 -16.5 l332 0 q37 0 48 59 l25 140 q40 -25 87 -28 l-36 -184 q-13 -74 -58 -74 l-399 0 Z" /><glyph glyph-name="uni4E07" unicode="&#x4e07;" d="M486 -50 q70 -6 102.5 -6 q32.5 0 53 -2.5 q20.5 -2.5 34.5 -4 q14 -1.5 29 -0.5 q30 1 32 31 l32 481 l-323 0 q-19 -201 -113 -360.5 q-94 -159.5 -251 -256.5 q-23 49 -61 87 q107 52 185 146 q151 169 156 486 l0 158 l-284 0 q-41 0 -80 -7 q4 46 0 93 q39 -8 80 -8 l622 0 q151 0 302 8 q-4 -47 0 -93 q-151 7 -302 7 l-249 0 l0 -182 l412 0 l-37 -554 q-5 -68 -30.5 -95.5 q-25.5 -27.5 -59.5 -35 q-34 -7.5 -63.5 -4.5 q-29.5 3 -70.5 8 q-56 8 -106 6 q6 50 -10 98 Z" /><glyph glyph-name="uni4E08" unicode="&#x4e08;" d="M986 622 q-5 -46 0 -93 q-142 8 -284 8 l-91 0 l0 -148 q0 -145 -96 -277 q97 -84 222 -128.5 q125 -44.5 260 -40.5 q-39 -48 -38 -110 q-137 3 -268.5 55 q-131.5 52 -236.5 151 q-78 -81 -183 -136.5 q-105 -55.5 -217 -77.5 q-5 54 -27 103 q107 11 202.5 57.5 q95.5 46.5 165.5 118.5 q-60 72 -107.5 172.5 q-47.5 100.5 -65.5 224.5 l79 9 q21 -189 151 -336 q70 104 70 215 l0 148 l-400 0 q-40 0 -80 -8 q5 47 0 93 q40 -7 80 -7 l400 0 l0 143 q0 46 -9 91 q53 -5 106 0 q-8 -45 -8 -91 l0 -143 l91 0 q142 0 284 7 Z" /><glyph glyph-name="uni4E09" unicode="&#x4e09;" d="M1002 -6 q-4 -46 0 -93 q-151 8 -302 8 l-622 0 q-41 0 -80 -8 q4 47 0 93 q39 -7 80 -7 l622 0 q151 0 302 7 ZM835 414 q-5 -46 0 -93 q-104 8 -207 8 l-401 0 q-41 0 -80 -8 q5 47 0 93 q39 -7 80 -7 l401 0 q103 0 207 7 ZM955 797 q-5 -46 0 -93 q-135 8 -270 8 l-547 0 q-41 0 -80 -8 q5 47 0 93 q39 -7 80 -7 l547 0 q135 0 270 7 Z" /><glyph glyph-name="uni4E0A" unicode="&#x4e0a;" d="M1002 -5 q-4 -47 0 -93 q-151 7 -302 7 l-622 0 q-41 0 -80 -7 q4 46 0 93 q39 -8 80 -8 l336 0 l0 771 q0 46 -9 91 q53 -5 106 0 q-8 -45 -8 -91 l0 -216 l256 0 q66 0 131 8 q-4 -47 0 -94 q-65 8 -131 8 l-256 0 l0 -477 l197 0 q151 0 302 8 Z" /><glyph glyph-name="uni4E0B" unicode="&#x4e0b;" d="M527 -156 q-53 5 -106 0 q9 135 9 272 l0 589 l-352 0 q-41 0 -80 -7 q4 46 0 93 q39 -8 80 -8 l622 0 q151 0 302 8 q-4 -47 0 -93 q-151 7 -302 7 l-182 0 l0 -198 l20 23 q178 -112 342 -237 l-65 -60 q-143 109 -297 207 l0 -324 q0 -137 9 -272 Z" /><glyph glyph-name="uni4E0D" unicode="&#x4e0d;" d="M1004 142 l-74 -51 l-166 159 l-173 151 l68 56 l175 -154 l170 -161 ZM541 -156 q-52 5 -104 0 q9 120 9 240 l0 345 q-169 -255 -386 -400 q-26 45 -67 80 q147 87 264 216 q117 129 189 292 l0 21 l9 0 q15 37 28 75 l-400 0 q-39 0 -76 -8 q4 44 0 89 q37 -8 76 -8 l610 0 q147 0 295 8 q-5 -45 0 -89 q-148 8 -295 8 l-93 0 q-31 -70 -67 -137 l0 -492 q0 -120 8 -240 Z" /><glyph glyph-name="uni4E0E" unicode="&#x4e0e;" d="M1002 685 q-4 -47 0 -94 q-110 8 -221 8 l-465 0 l0 -159 l621 0 l-38 -472 q-6 -64 -31.5 -91 q-25.5 -27 -59 -34.5 q-33.5 -7.5 -62.5 -4.5 q-29 3 -71 8 q-56 8 -107 6 q6 50 -9 98 q70 -6 102 -6 q32 0 52.5 -3 q20.5 -3 35 -5 q14.5 -2 28.5 -1 q30 1 33 31 l32 397 l-614 0 l0 395 q0 46 -9 91 q53 -5 106 0 q-13 -80 -9 -172 l465 0 q111 0 221 8 ZM739 226 q-5 -47 0 -93 q-112 7 -223 7 l-438 0 q-41 0 -80 -7 q4 46 0 93 q39 -8 80 -8 l438 0 q111 0 223 8 Z" /><glyph glyph-name="uni4E11" unicode="&#x4e11;" d="M1002 -8 q-4 -44 0 -89 q-151 8 -302 8 l-626 0 q-39 0 -76 -8 q4 44 0 89 q37 -8 76 -8 l247 0 l25 355 l-155 0 q-39 0 -77 -7 q5 44 0 88 q38 -7 77 -7 l160 0 l22 314 l-185 0 q-38 0 -76 -7 q5 44 0 88 q38 -7 76 -7 l642 0 l-54 -816 q113 1 226 7 ZM409 -16 l280 0 l23 355 l-279 0 l-24 -355 ZM439 413 l278 0 l21 314 l-278 0 l-21 -314 Z" /><glyph glyph-name="uni4E13" unicode="&#x4e13;" d="M74 397 q-39 0 -76 -7 q4 44 0 88 q37 -7 76 -7 l271 0 l35 127 l-180 0 q-39 0 -76 -7 q4 44 0 88 q37 -7 76 -7 l200 0 l29 102 q12 44 15 89 q49 -19 101 -28 q-20 -40 -33 -84 l-21 -79 l157 0 q113 0 226 7 q-5 -44 0 -88 q-113 7 -226 7 l-178 0 l-35 -127 l265 0 q151 0 302 7 q-4 -44 0 -88 q-151 7 -302 7 l-286 0 l-26 -96 l437 0 l0 -74 q-32 -20 -60 -46 l-190 -184 l156 -102 l-61 -61 l-185 120 l-189 112 l53 67 l150 -89 l189 183 l-411 0 l47 170 l-250 0 Z" /><glyph glyph-name="uni4E14" unicode="&#x4e14;" d="M1002 -15 q-4 -43 0 -85 q-151 7 -302 7 l-630 0 q-36 0 -72 -7 q4 42 0 85 q36 -7 72 -7 l120 0 l-1 832 l600 0 l0 -832 q107 2 213 7 ZM703 541 l0 199 l-429 0 l1 -199 l428 0 ZM703 261 l0 210 l-428 0 l0 -210 l428 0 ZM703 -22 l0 213 l-428 0 l0 -213 l428 0 Z" /><glyph glyph-name="uni4E16" unicode="&#x4e16;" d="M129 784 q51 -6 103 0 q-9 -44 -9 -89 l0 -118 l171 0 l0 184 q0 44 -9 88 q51 -5 103 0 q-9 -44 -9 -88 l0 -184 l202 0 l0 184 q0 44 -9 88 q51 -5 103 0 q-9 -44 -9 -88 l0 -184 q118 1 236 7 q-4 -42 0 -84 q-118 5 -236 6 l0 -199 q0 -117 9 -234 q-52 6 -103 0 q2 30 4 60 l-193 0 q2 -36 5 -72 q-51 5 -103 0 q9 118 9 237 l0 209 l-171 0 l0 -539 l724 0 l0 -70 l-810 0 l0 609 q-74 3 -139 -7 q4 42 0 84 q65 -10 139 -7 l0 118 q0 45 -8 89 ZM681 307 l0 200 l-202 0 l2 -304 l198 0 q2 52 2 104 Z" /><glyph glyph-name="uni4E18" unicode="&#x4e18;" d="M1002 -14 q-4 -42 0 -84 q-151 7 -302 7 l-630 0 q-36 0 -72 -7 q4 42 0 84 q36 -7 72 -7 l101 0 l0 644 q0 45 -9 89 q20 -3 41 -3 q327 26 561 159 q17 -54 45 -104 l-346 -105 l-97 -25 q-28 -6 -55 -11 q-27 -5 -55 -9 l0 -168 l460 0 q109 0 219 7 q-5 -42 0 -84 q-110 7 -219 7 l-67 0 l0 -397 l51 0 q151 0 302 7 ZM563 -21 l0 397 l-307 0 l0 -397 l307 0 Z" /><glyph glyph-name="uni4E19" unicode="&#x4e19;" d="M423 591 l-5 124 l-348 0 q-36 0 -72 -7 q4 42 0 84 q36 -7 72 -7 l630 0 q151 0 302 7 q-4 -42 0 -84 q-151 7 -302 7 l-170 0 q0 -72 -3 -124 l380 0 l0 -630 q3 -71 -32 -100 q-50 -33 -143 -25 l-23 0 q4 51 -6 102 q63 -15 103 -7 q15 2 16 17 l0 573 l-301 0 q-7 -58 -18 -109 l28 19 q122 -125 227 -260 l-79 -43 q-90 115 -192 223 q-70 -229 -260 -311 q-18 49 -51 89 q137 51 203 178 q42 85 45 214 l-271 0 l1 -462 q0 -108 9 -215 q-51 5 -103 0 q9 107 8 215 l-1 532 l356 0 Z" /><glyph glyph-name="uni4E1A" unicode="&#x4e1a;" d="M1002 -16 q-4 -42 0 -84 q-151 7 -302 7 l-630 0 q-36 0 -72 -7 q4 42 0 84 q36 -7 72 -7 l297 0 l0 784 q0 44 -8 88 q51 -5 103 0 q-9 -44 -9 -88 l0 -784 l162 0 l0 781 q0 45 -9 88 q52 -5 103 0 q-9 -43 -9 -88 l0 -520 q145 173 173 376 q53 -20 109 -29 q-78 -194 -136 -296.5 q-58 -102.5 -117 -169.5 q-14 13 -29 25 l0 -167 q151 0 302 7 ZM208 199 q-83 202 -183 398 l86 31 q102 -199 186 -403 l-89 -26 Z" /><glyph glyph-name="uni4E1B" unicode="&#x4e1b;" d="M988 -16 q-4 -42 0 -84 q-140 7 -281 7 l-580 0 q-37 0 -73 -7 q5 42 0 84 q36 -7 73 -7 l580 0 q141 0 281 7 ZM632 692 q4 84 -8 157 q51 -5 103 0 q-13 -73 -9 -157 q0 -34 -2 -66 q15 -188 95 -314 q41 -64 98 -116.5 q57 -52.5 110 -86.5 q-57 -18 -89 -68 q-185 130 -253 372 q-46 -145 -136 -256 q-90 -111 -209 -179 q-20 48 -56 86 q163 76 259.5 237.5 q96.5 161.5 96.5 390.5 ZM255 522 l0 236 q0 45 -9 89 q51 -6 103 0 q-9 -44 -9 -89 l0 -212 l11 8 q98 -95 180 -201 l-79 -42 q-54 69 -116 134 q-17 -139 -90 -244.5 q-73 -105.5 -179 -162.5 q-19 48 -53 88 q108 40 174.5 141.5 q66.5 101.5 66.5 254.5 Z" /><glyph glyph-name="uni4E1C" unicode="&#x4e1c;" d="M1006 -36 l-77 -45 l-143 162 l-150 156 l73 50 l151 -158 l146 -165 ZM325 276 q44 -27 92 -44 q-59 -110 -151.5 -204 q-92.5 -94 -216.5 -155 q-16 41 -45 75 q112 41 194.5 128.5 q82.5 87.5 126.5 199.5 ZM382 -49 q76 -11 119 -3 q13 2 13 17 l0 345 l-351 0 l169 305 l-205 0 q-36 0 -72 -7 q4 42 0 84 q36 -7 72 -7 l243 0 l60 107 q21 39 35 82 q42 -30 90 -50 q-29 -34 -50 -73 l-37 -66 l248 0 q142 0 284 7 q-4 -42 0 -84 q-142 7 -284 7 l-287 0 l-129 -235 l214 0 q4 79 -8 148 q51 -5 103 0 q-12 -69 -9 -148 l319 0 l0 -70 l-319 0 l0 -333 q3 -106 -79 -120 q-55 -8 -107 -3 l-26 0 q4 49 -6 97 Z" /><glyph glyph-name="uni4E1D" unicode="&#x4e1d;" d="M1002 -14 q-4 -42 0 -84 q-151 7 -302 7 l-630 0 q-36 0 -72 -7 q4 42 0 84 q36 -7 72 -7 l630 0 q151 0 302 7 ZM896 656 q40 -33 86 -56 l-139 -170 l-7 -44 l-25 4 l-163 -199 l224 3 l77 13 l-12 -82 l-63 6 l-352 -15 l-2 71 q28 2 44 19 l129 135 l44 50 l-223 -9 l-1 71 q21 -4 31 15 q22 42 68 117.5 q46 75.5 75 134.5 q29 59 45 123 q42 -30 89 -52 q-119 -154 -201 -336 l168 1 q73 101 108 200 ZM412 634 q41 -31 88 -52 l-130 -170 l-4 -26 l-14 2 l-137 -180 l167 7 l62 14 l-9 -82 l-49 5 l-293 -22 l-5 70 q27 2 41 18 l105 117 q25 28 46 57 l-244 -10 l-1 71 q23 -2 38 16 l71 88 q22 29 54 77 q57 84 72 198 q45 -24 94 -39 l-27 -48 q-88 -147 -185 -289 l167 0 l9 2 q60 90 84 176 Z" /><glyph glyph-name="uni4E22" unicode="&#x4e22;" d="M67 251 q-35 0 -69 -7 q4 40 0 80 q34 -6 69 -6 l393 0 l0 162 l-235 0 q-35 0 -69 -7 q4 40 0 80 q34 -6 69 -6 l235 0 l0 113 q-192 -35 -369 -25 q6 42 -3 84 q394 -30 699 147 q19 -52 48 -100 q-149 -56 -290 -88 l0 -131 l85 0 q102 0 204 6 q-5 -40 0 -80 q-102 7 -204 7 l-85 0 l0 -162 l155 0 q151 0 302 6 q-4 -40 0 -80 q-151 7 -302 7 l-173 0 q-110 -163 -261 -287 l407 41 l29 6 l-107 104 l69 52 l140 -137 l132 -143 l-74 -46 l-99 108 l-83 -3 l-568 -67 l-7 67 q28 5 61.5 25.5 q33.5 20.5 68.5 45 q35 24.5 76 60.5 q81 69 120 174 l-364 0 Z" /><glyph glyph-name="uni4E24" unicode="&#x4e24;" d="M584 455 l0 75 l-186 0 l0 -167 l8 5 l110 -122 l-73 -46 l-56 62 q-21 -89 -75 -157 q-54 -68 -129 -105 q-11 36 -32 67 l0 -6 q1 -109 9 -217 q-50 5 -99 0 q8 108 7 217 l-1 533 l248 0 l0 127 l-251 0 q-33 0 -66 -7 q4 39 0 77 q33 -6 66 -6 l636 0 q151 0 302 6 q-4 -38 0 -77 q-151 7 -302 7 l-33 0 l0 -127 l236 0 l0 -634 q4 -111 -83 -123 q-62 -5 -114 0 l-28 0 q4 48 -6 94 q45 -5 64.5 -5 q19.5 0 33 -0.5 q13.5 -0.5 19.5 0 q6 0.5 15 2.5 q16 2 16 19 l0 583 l-153 0 q3 -87 -6 -166 q71 -101 125 -210 l-85 -29 q-30 62 -67 122 q-68 -189 -229 -285 q-20 47 -54 84 q108 46 170.5 149.5 q62.5 103.5 62.5 259.5 ZM584 594 l0 127 l-186 0 l0 -127 l186 0 ZM315 530 l-165 0 l1 -438 q72 26 118 95 q46 69 46 175 l0 168 Z" /><glyph glyph-name="uni4E25" unicode="&#x4e25;" d="M123 156 l0 240 l260 0 l0 331 l-229 0 q-33 0 -66 -7 q4 39 0 77 q33 -6 66 -6 l573 0 q138 0 275 6 q-4 -38 0 -77 q-137 7 -275 7 l-63 0 l0 -230 q0 -50 6 -100 l77 0 q126 0 252 7 q-4 -38 0 -77 q-125 6 -251 6 l-542 -1 l0 -176 q0 -199 -132 -318 q-27 42 -66 73 q115 64 115 245 ZM842 671 q43 -25 89 -41 q-68 -115 -159 -193 q-25 35 -60 60 q89 49 130 174 ZM247 473 q-58 90 -132 173 l73 45 q78 -87 139 -183 l-80 -35 ZM581 497 l0 230 l-115 0 l0 -331 l109 1 q6 49 6 100 Z" /><glyph glyph-name="uni4E27" unicode="&#x4e27;" d="M308 320 l0 -360 l153 68 q26 14 51 30 l20 -63 q-23 -5 -44 -16 l-242 -134 l-34 63 q14 19 14 42 l0 370 l-165 0 q-32 0 -63 -6 q4 37 0 74 q31 -6 63 -6 l387 0 l0 240 l-216 0 q69 -82 123 -171 l-80 -34 q-55 90 -125 173 l54 32 q-76 3 -143 -6 q4 37 0 74 q31 -6 63 -6 l324 0 q4 88 -8 165 q49 -5 98 0 q-12 -77 -8 -165 l159 0 q135 0 270 6 q-4 -37 0 -74 q-135 6 -270 6 l-159 0 l0 -240 l48 0 q80 96 159 223 q35 -34 76 -60 q-67 -65 -135 -163 l22 0 q151 0 302 6 q-4 -37 0 -74 q-151 6 -302 6 l-245 0 q34 -100 105 -181 q137 60 250 154 q22 -44 52 -82 q-26 -12 -53 -26 l-188 -105 q135 -114 328 -147 q-43 -37 -53 -93 q-174 41 -299 148 q-149 124 -218 332 l-71 0 Z" /><glyph glyph-name="uni4E2A" unicode="&#x4e2a;" d="M559 -156 q-53 5 -106 0 q9 100 9 201 l0 374 q0 46 -9 91 q53 -5 106 0 q-8 -45 -8 -91 l0 -374 q0 -101 8 -201 ZM511 694 q-216 -296 -455 -430 q-23 49 -62 87 q162 79 286.5 205 q124.5 126 193.5 289 q30 -20 62 -36 l41 -19 l-17 -26 q68 -122 177.5 -201.5 q109.5 -79.5 274.5 -137.5 q-52 -33 -71 -92 q-136 51 -245 146.5 q-109 95.5 -185 214.5 Z" /><glyph glyph-name="uni4E2D" unicode="&#x4e2d;" d="M552 -156 q-52 5 -104 0 q8 151 8 302 l0 89 l-333 0 l0 -42 l-87 0 l0 444 l420 0 l0 122 q0 46 -8 90 q52 -5 104 0 q-8 -44 -8 -90 l0 -122 l420 0 l0 -444 l-87 0 l0 42 l-333 0 l0 -89 q0 -151 8 -302 ZM544 309 l333 0 l0 254 l-333 0 l0 -254 ZM456 309 l0 254 l-333 0 l0 -254 l333 0 Z" /><glyph glyph-name="uni4E30" unicode="&#x4e30;" d="M534 -156 q-52 5 -104 0 q7 136 8 273 l-364 0 q-39 0 -76 -7 q4 44 0 88 q37 -7 76 -7 l364 0 l0 163 l-236 0 q-38 0 -76 -7 q5 44 0 88 q38 -7 76 -7 l236 0 l0 163 l-299 0 q-38 0 -76 -8 q5 45 0 89 q38 -8 76 -8 l299 0 l0 95 q0 46 -8 90 q52 -5 104 0 q-9 -44 -9 -90 l0 -95 l138 0 q129 0 258 8 q-5 -44 0 -89 q-129 8 -258 8 l-138 0 l0 -163 l122 0 q112 0 224 7 q-4 -44 0 -88 q-112 7 -224 7 l-122 0 l0 -163 l175 0 q151 0 302 7 q-4 -44 0 -88 q-151 7 -302 7 l-175 0 q1 -137 9 -273 Z" /><glyph glyph-name="uni4E32" unicode="&#x4e32;" d="M550 -156 q-53 5 -105 0 q7 117 8 234 l-375 0 l0 288 l376 0 l0 88 l-342 0 l0 276 l342 0 q2 63 -9 119 q52 -5 105 0 q-11 -56 -9 -119 l330 0 l-2 -276 l-328 0 l0 -88 l369 0 l-1 -288 l-368 0 q2 -117 9 -234 ZM541 293 l0 -141 l281 0 l1 141 l-282 0 ZM454 293 l-288 0 l0 -141 l288 0 l0 141 ZM541 657 l0 -129 l241 0 l1 129 l-242 0 ZM454 657 l-255 0 l0 -129 l255 0 l0 129 Z" /><glyph glyph-name="uni4E34" unicode="&#x4e34;" d="M509 -154 l-80 0 l0 465 l527 0 l0 -465 l-80 0 l0 71 l-367 0 l0 -71 ZM696 340 q-37 100 -89 194 l80 32 q55 -100 94 -204 l-85 -22 ZM978 642 q-4 -35 0 -71 q-70 6 -140 6 l-278 0 q-68 -124 -168 -216 q-25 32 -61 54 q97 76 153.5 184.5 q56.5 108.5 71.5 226.5 q46 -14 94 -18 q-23 -89 -61 -172 l249 0 q70 0 140 6 ZM329 -156 q-48 5 -97 0 q8 142 8 285 l0 578 q0 42 -8 83 q48 -5 97 0 q-8 -41 -8 -83 l0 -578 q0 -143 8 -285 ZM127 10 q-48 5 -96 0 q8 95 8 191 l0 357 q0 42 -8 83 q48 -5 96 0 q-8 -41 -8 -83 l0 -357 q0 -96 8 -191 ZM727 -24 l149 0 l0 276 l-149 0 l0 -276 ZM647 -24 l0 276 l-138 0 l0 -276 l138 0 Z" /><glyph glyph-name="uni4E38" unicode="&#x4e38;" d="M137 540 q-41 0 -80 -7 q4 46 0 93 q39 -8 80 -8 l211 0 l0 140 q0 46 -9 91 q53 -5 106 0 q-9 -45 -9 -91 l0 -140 l275 0 l0 -632 q0 -23 12.5 -39.5 q12.5 -16.5 31.5 -16.5 l145 1 q19 0 23 30 l3 35 l24 154 q30 -38 78 -42 l-36 -225 q-5 -16 -13 -23 q-8 -7 -19 -7 l-206 0 q-57 0 -93 34 q-36 34 -38 93 q-1 35 -1 280 q0 245 1 280 l-187 0 q-2 -144 -38 -268 l151 -120 l-69 -58 l-113 91 q-96 -227 -295 -353 q-23 49 -62 86 q200 102 285 322 l-132 94 l62 62 l97 -68 q24 98 25 212 l-210 0 Z" /><glyph glyph-name="uni4E39" unicode="&#x4e39;" d="M498 453 q-50 107 -117 207 l83 39 q71 -105 123 -217 l-89 -29 ZM1002 428 q-4 -44 0 -88 q-97 5 -194 6 l0 -378 q0 -58 -23 -81 q-42 -39 -122 -35 q0 0 -61 1 q3 52 -7 104 q54 -9 71 -9 q55 0 55 25 l0 374 l-393 0 q-3 -167 -68.5 -299.5 q-65.5 -132.5 -187.5 -214.5 q-24 47 -62 84 q113 59 170 163 q58 111 61 267 l-143 0 q-39 0 -76 -7 q4 44 0 88 q37 -7 76 -7 l143 0 l0 391 l567 -1 l0 -389 q97 1 194 6 ZM721 738 l-393 0 l0 -317 l393 0 l0 317 Z" /><glyph glyph-name="uni4E3A" unicode="&#x4e3a;" d="M664 122 q-63 103 -142 199 l79 45 q83 -100 148 -208 l-85 -36 ZM324 566 q-70 97 -156 184 l74 51 q90 -92 164 -194 l-82 -41 ZM157 466 q-38 0 -76 -7 q5 44 0 88 q38 -7 76 -7 l326 0 q30 137 19 278 q57 -6 115 0 q-5 -141 -39 -278 l429 0 l-115 -572 q-12 -70 -54 -103 q-52 -35 -135 -22 l-51 6 q-45 5 -90 4 q5 49 -10 97 q68 -6 99 -6 q31 0 52.5 -2 q21.5 -2 35.5 -2.5 q14 -0.5 29 0.5 q31 4 36 34 l99 492 l-346 0 q-96 -299 -299 -491 q-92 -86 -204 -144 q-21 49 -57 87 q148 69 260 188 q140 148 206 360 l-306 0 Z" /><glyph glyph-name="uni4E3B" unicode="&#x4e3b;" d="M1002 -14 q-4 -43 0 -85 q-151 7 -302 7 l-630 0 q-36 0 -72 -7 q4 42 0 85 q36 -7 72 -7 l381 0 l0 282 l-258 0 q-36 0 -72 -7 q4 42 0 84 q36 -7 72 -7 l258 0 l0 223 l-321 0 q-36 0 -72 -7 q4 42 0 84 q36 -7 72 -7 l551 0 q135 0 269 7 q-5 -42 0 -84 q-134 7 -269 7 l-144 0 l0 -223 l110 0 q114 0 227 7 q-5 -42 0 -84 q-113 7 -227 7 l-110 0 l0 -282 l163 0 q151 0 302 7 ZM517 633 q-80 89 -176 167 l66 56 q101 -82 186 -175 l-76 -48 Z" /><glyph glyph-name="uni4E3D" unicode="&#x4e3d;" d="M540 596 l372 0 l0 -636 q3 -67 -28 -96 q-45 -33 -133 -27 l-21 0 q3 50 -6 100 q49 -9 61 -9 q44 0 44 19 l0 585 l-205 0 l0 -108 l64 33 q97 -136 132 -292 l-90 -14 q-28 130 -106 246 l1 -335 q0 -109 9 -218 q-50 5 -100 0 q8 108 8 218 l-2 534 ZM411 -40 q3 -67 -29 -96 q-46 -33 -134 -27 l-22 0 q3 50 -6 100 q66 -18 100 -3 q8 5 8 13 l0 220 l-86 -9 q-21 130 -88 250 l1 -347 q0 -109 8 -217 q-49 5 -99 0 q8 108 8 217 l-1 533 l340 0 l0 -634 ZM1002 791 q-4 -38 0 -76 q-151 6 -302 6 l-636 0 q-33 0 -66 -6 q4 38 0 76 q33 -6 66 -6 l636 0 q151 0 302 6 ZM328 530 l-174 0 l0 -113 l78 31 q70 -123 96 -257 l0 339 Z" /><glyph glyph-name="uni4E3E" unicode="&#x4e3e;" d="M651 580 q101 74 119 223 q45 -14 93 -19 q-37 -124 -113 -217 q126 1 252 6 q-4 -36 0 -71 q-147 6 -295 6 l-38 0 q42 -56 106 -105 q107 -82 233 -127 q-48 -28 -67 -81 q-118 48 -201 124 q-83 76 -157 189 l-140 0 q-95 -142 -192 -230 q18 -2 36 -2 l178 0 q4 78 -8 145 q49 -5 97 0 q-11 -67 -8 -145 l67 0 q84 0 167 6 q-4 -36 0 -71 q-83 6 -167 6 l-67 0 l0 -109 l113 0 q116 0 232 6 q-4 -36 0 -71 q-116 6 -232 6 l-113 0 l0 -31 q0 -87 8 -174 q-48 5 -97 0 q10 100 8 205 l-283 0 q-31 0 -61 -6 q3 35 0 71 q30 -6 61 -6 l283 0 l0 109 l-178 0 q-30 0 -61 -6 q3 25 2 46 q-83 -70 -179 -108 q-16 46 -46 84 q108 38 195 108 q87 70 133 167 l-248 0 q-31 0 -61 -6 q4 35 0 71 q30 -6 61 -6 l588 0 q-10 7 -20 13 ZM537 590 q-69 113 -154 218 l74 41 q87 -109 159 -226 l-79 -33 ZM310 588 q-83 102 -180 194 l66 49 q101 -96 187 -201 l-73 -42 Z" /><glyph glyph-name="uni4E43" unicode="&#x4e43;" d="M522 -49 q77 -7 112.5 -7 q35.5 0 59 -3 q23.5 -3 40 -5 q16.5 -2 32.5 -1 q35 2 39 36 l58 447 l-288 0 l120 306 l-267 0 l0 -166 q0 -249 -96 -433 q-96 -184 -259 -293 q-24 49 -64 86 q173 93 259 279 q67 146 70 361 l0 166 l-102 0 q-43 0 -85 -9 q5 50 0 99 q42 -8 85 -8 l588 0 l-120 -306 l261 0 l-69 -530 q-8 -79 -55 -113 q-37 -27 -98 -24 q-30 2 -56 6 q-72 13 -154 12 q6 51 -11 100 Z" /><glyph glyph-name="uni4E45" unicode="&#x4e45;" d="M382 838 q52 -26 109 -40 l-83 -165 l298 0 q-39 -168 -121 -317 q55 -135 168 -231.5 q113 -96.5 261 -156.5 q-54 -29 -76 -87 q-135 59 -236 161 q-101 102 -166 234 q-175 -266 -457 -413 q-43 55 -103 92 q165 52 299 159.5 q134 107.5 221 253.5 l-6 17 l19 6 q53 97 83 204 l-224 0 q-87 -176 -200 -307 q-39 38 -88 60 q239 257 302 530 Z" /><glyph glyph-name="uni4E48" unicode="&#x4e48;" d="M1011 -116 l-86 -39 l-97 143 l-86 1 l-567 -44 l-6 78 q34 3 62 24 q144 107 265 237 q127 135 198 320 q43 -32 92 -54 q-198 -287 -458 -516 l409 24 l37 6 l-97 131 l81 44 l130 -174 l123 -181 ZM535 848 q46 -36 99 -61 q-291 -397 -577 -571 q-24 47 -64 84 q162 90 296 216 q148 140 246 332 Z" /><glyph glyph-name="uni4E49" unicode="&#x4e49;" d="M518 606 q-62 104 -140 199 l80 46 q83 -100 148 -209 l-88 -36 ZM744 721 q58 -12 116 -11 q-23 -159 -92 -307 q-69 -148 -176 -268 q180 -142 417 -201 q-50 -37 -64 -96 q-237 64 -420 229 q-210 -194 -485 -242 q-5 54 -28 102 q257 35 449 204 q-103 110 -173.5 245 q-70.5 135 -103.5 283 l78 16 q56 -283 263 -481 q99 108 156 243.5 q57 135.5 63 283.5 Z" /><glyph glyph-name="uni4E4B" unicode="&#x4e4b;" d="M125 545 q-40 0 -80 -8 q5 47 0 93 q40 -7 80 -7 l344 0 q-60 95 -135 182 l80 47 q82 -96 147 -201 l-67 -28 l400 0 q-279 -315 -601 -585 q52 -58 140 -79 q74 -18 143 -23 l169 -11 l241 -2 q-39 -46 -40 -106 l-233 12 q-40 2 -101.5 7.5 q-61.5 5.5 -98.5 11.5 q-37 6 -85 17.5 q-48 11.5 -80 27.5 q-72 32 -123 88 l-137 -108 q-53 46 -118 71 q414 242 731 601 l-576 0 Z" /><glyph glyph-name="uni4E4C" unicode="&#x4e4c;" d="M817 177 q-5 -45 0 -89 q-123 8 -247 8 l-496 0 q-39 0 -76 -8 q4 44 0 89 q37 -8 76 -8 l496 0 q124 0 247 8 ZM723 -49 l121 -8 q22 -5 39 -5.5 q17 -0.5 22.5 5 q5.5 5.5 5.5 16.5 l0 301 l-699 0 l0 469 l164 0 q31 70 63 123 q34 -39 75 -70 q-31 -17 -49 -53 l345 0 l0 -301 q0 -68 -46 -94 l235 0 l0 -368 q0 -54 -20.5 -78.5 q-20.5 -24.5 -49.5 -33.5 q-29 -9 -52 -8 l-113 7 l-33 0 q4 49 -8 98 ZM584 417 l93 -6 q25 -7 42 0 q4 4 4 11 l0 233 l-424 0 l0 -321 l292 0 q1 42 -7 83 Z" /><glyph glyph-name="uni4E4E" unicode="&#x4e4e;" d="M303 -49 q74 -10 120 -2 q21 5 21 23 l0 299 l-374 0 q-36 0 -72 -7 q4 42 0 84 q36 -7 72 -7 l374 0 l0 356 q-184 -23 -391 -22 q4 43 -7 85 q435 -12 786 110 q8 -56 28 -109 q-179 -33 -330 -53 l0 -367 l102 0 q-28 32 -64 53 q126 96 193 275 q44 -26 92 -43 q-99 -169 -216 -285 l63 0 q151 0 302 7 q-4 -42 0 -84 q-151 7 -302 7 l-170 0 l0 -282 q5 -116 -74 -132 q-61 -9 -120 -3 l-27 0 q4 49 -6 97 ZM273 375 q-58 111 -132 214 l80 41 q78 -108 139 -224 l-87 -31 Z" /><glyph glyph-name="uni4E4F" unicode="&#x4e4f;" d="M196 393 q-39 0 -76 -7 q4 44 0 88 q37 -7 76 -7 l663 0 q-253 -253 -553 -449 q48 -41 115 -58 q67 -17 144.5 -23 q77.5 -6 115.5 -8 l120 -6 l184 -1 q-38 -45 -39 -104 l-231 12 q-41 2 -101.5 7 q-60.5 5 -97 11 q-36.5 6 -83.5 16.5 q-47 10.5 -79 24.5 q-71 30 -123 81 q-75 -46 -151 -88 q-44 52 -104 87 q381 143 674 424 l-454 0 ZM496 479 q-62 77 -140 144 l18 14 q-157 -17 -306 -3 q8 44 0 87 q188 -22 380.5 11 q192.5 33 368.5 136 q20 -54 50 -103 q-204 -83 -409 -116 q64 -59 118 -126 l-80 -44 Z" /><glyph glyph-name="uni4E50" unicode="&#x4e50;" d="M993 -9 l-77 -45 l-131 148 l-137 140 l72 51 l140 -143 l133 -151 ZM310 282 q41 -30 88 -50 q-139 -214 -346 -341 q-20 39 -52 70 q105 50 182.5 136 q77.5 86 127.5 185 ZM392 -146 q4 49 -6 97 q71 -10 111 -2 q16 2 17 19 l0 360 l-342 0 l0 325 q0 44 -9 88 q27 -3 54 -3 q-2 7 -3 14 q355 -23 636 117 q15 -55 40 -106 q-356 -102 -632 -98 l-1 -267 l257 0 l0 126 q0 45 -8 89 q51 -6 102 0 q-8 -44 -8 -89 l0 -126 l400 0 l0 -70 l-400 0 l0 -347 q2 -82 -41 -108 q-34 -22 -82 -20 l-85 1 Z" /><glyph glyph-name="uni4E52" unicode="&#x4e52;" d="M375 160 q39 -32 83 -56 q-81 -104 -186 -175 q-98 -67 -231 -102 q-7 43 -28 81 q115 17 209.5 84 q94.5 67 152.5 168 ZM1002 241 q-4 -40 0 -80 q-146 6 -293 6 l-611 0 q-34 0 -69 -6 q5 40 0 80 q35 -7 69 -7 l141 0 l0 434 q0 44 -8 87 q23 -3 47 -3 q-1 3 -2 7 q300 -5 543 109 q13 -54 37 -104 q-313 -80 -532 -88 l0 -127 l406 0 q98 0 195 6 q-4 -40 0 -80 q-97 7 -195 7 l-71 0 l0 -248 l50 0 q147 0 293 7 ZM575 234 l0 248 l-251 0 l0 -248 l251 0 Z" /><glyph glyph-name="uni4E53" unicode="&#x4e53;" d="M67 142 q-35 0 -69 -7 q4 40 0 80 q34 -7 69 -7 l155 0 l0 469 q0 44 -8 87 q45 -5 89 -1 l-1 3 q282 -1 493 102 q13 -54 37 -105 q-202 -46 -315 -62 q-113 -16 -205 -18 q1 25 -2 50 q-4 -28 -4 -56 l0 -133 l411 0 q99 0 197 7 q-4 -40 0 -80 q-98 6 -197 6 l-63 0 l0 -269 l46 0 q151 0 302 7 q-4 -40 0 -80 q-151 7 -302 7 l-122 0 q212 -98 369 -252 l-70 -51 q-149 146 -350 238 l42 65 l-502 0 ZM570 208 l0 269 l-264 0 l0 -269 l264 0 Z" /><glyph glyph-name="uni4E54" unicode="&#x4e54;" d="M764 -156 q-50 5 -101 0 q8 75 8 150 l0 260 q0 43 -8 87 q42 -5 80 -2 q-65 76 -113 175 l-191 0 q-65 -127 -164.5 -223.5 q-99.5 -96.5 -225.5 -147.5 q-16 48 -47 89 q227 80 340 282 l-210 0 q-35 0 -69 -6 q4 40 0 80 q34 -7 69 -7 l241 0 q20 51 30 105 q-148 -13 -283 -2 q6 42 -2 84 q380 -37 690 100 q12 -54 36 -105 q-175 -44 -333 -66 q-16 -59 -40 -116 l249 0 q141 0 282 7 q-4 -40 0 -80 q-141 6 -282 6 l-8 0 q75 -142 299 -245 q-52 -26 -75 -80 q-99 48 -175 131 q-5 -33 -5 -66 l0 -260 q0 -75 8 -150 ZM327 336 q56 -6 112 0 q0 -162 -38.5 -275.5 q-38.5 -113.5 -131.5 -178.5 q-70 -49 -155 -55 q-1 51 -19 99 q67 0 123 34 q56 34 84 86 q29 59 30 139 l-5 151 Z" /><glyph glyph-name="uni4E56" unicode="&#x4e56;" d="M728 141 q0 -20 11.5 -34.5 q11.5 -14.5 28.5 -14.5 l138 1 q15 0 24 31 l20 75 q36 -21 77 -28 l-34 -107 q-12 -44 -33 -44 l-193 0 q-52 0 -86 32.5 q-34 32.5 -34 88.5 l0 266 q0 42 -8 84 q48 -5 97 0 q-8 -42 -8 -84 l0 -99 q96 42 174 130 q29 -39 66 -71 q-123 -93 -240 -144 l0 -82 ZM255 120 q-133 -37 -226 -101 q-11 50 -33 95 q99 34 260 71 l0 128 l-153 0 q-32 0 -64 -6 q4 37 0 73 q32 -6 64 -6 l153 0 q2 62 -8 117 q49 -5 98 0 q-8 -42 -8 -84 l0 -236 q0 -69 8 -138 q-49 5 -98 0 q5 43 7 87 ZM549 -156 q-49 5 -98 0 q8 140 8 281 l0 421 l-398 0 q-32 0 -63 -6 q4 37 0 74 q31 -7 63 -7 l398 0 l0 105 q-195 -19 -367 -4 q7 41 0 81 q390 -38 690 79 q9 -54 29 -104 q-147 -27 -270 -43 l0 -114 l154 0 q150 0 299 7 q-3 -37 0 -74 q-149 6 -299 6 l-154 0 l0 -421 q0 -141 8 -281 Z" /><glyph glyph-name="uni4E58" unicode="&#x4e58;" d="M273 284 q-116 -35 -198 -104 q-13 48 -36 91 q87 35 236 74 l0 72 l-166 0 q-30 0 -59 -5 q4 34 0 68 q29 -6 59 -6 l166 0 l0 95 l-201 0 q-30 0 -59 -6 q3 34 0 68 q29 -5 59 -5 l391 0 l0 89 q-192 -24 -351 -28 q2 40 -9 78 q375 2 672 101 q7 -52 25 -101 q-146 -24 -257 -39 l0 -100 l160 0 q148 0 297 5 q-4 -34 0 -68 q-149 6 -297 6 l-4 0 l0 -149 q109 32 174 112 q27 -39 62 -71 q-121 -81 -236 -121 q-3 -35 9.5 -52.5 q12.5 -17.5 29.5 -17.5 l139 0 q16 1 24 30 l19 72 q36 -20 75 -27 l-33 -102 q-11 -41 -33 -41 l-192 0 q-55 0 -86 33 q-31 33 -31 83 l0 251 l-77 0 l0 -206 l9 -3 l-9 -16 l0 -5 q95 -164 265 -272 q77 -50 175 -98 q-50 -24 -73 -74 q-211 107 -367 318 l0 -87 q0 -141 8 -282 q-48 5 -95 0 q7 141 7 282 l0 97 q-182 -248 -416 -347 q-16 45 -46 82 q159 59 279.5 173.5 q120.5 114.5 176.5 272.5 l6 -4 l0 169 l-111 0 l0 -228 q0 -57 8 -113 q-47 5 -95 0 q4 28 6 56 Z" /><glyph glyph-name="uni4E59" unicode="&#x4e59;" d="M133 721 q-46 0 -91 -9 q6 53 0 105 q45 -8 91 -8 l628 0 l-2 -90 q-51 -26 -95.5 -71 q-44.5 -45 -270 -287 q-225.5 -242 -250.5 -276.5 q-25 -34.5 -12 -70.5 q13 -36 49 -36 l663 0 q32 0 56 19.5 q24 19.5 28 49.5 l26 191 q30 -45 84 -47 l-31 -209 q-5 -39 -32 -65.5 q-27 -26.5 -63 -26.5 l-735 0 q-43 0 -77.5 25 q-34.5 25 -50.5 62 q-34 92 22 163 q31 39 267.5 293 q236.5 254 272.5 288 l-477 0 Z" /><glyph glyph-name="uni4E5D" unicode="&#x4e5d;" d="M155 518 q-43 0 -85 -9 q5 50 0 99 q42 -8 85 -8 l199 0 q-8 181 -8 218 q59 -6 119 0 q0 -196 -1 -218 l242 0 l0 -613 q0 -22 12.5 -38 q12.5 -16 31.5 -16 l150 0 q15 1 19 14 q7 23 8 47 l25 142 q31 -38 80 -42 l-37 -213 q-5 -22 -20 -29 q-5 -2 -12 -2 l-214 0 q-56 0 -93.5 36 q-37.5 36 -39.5 96 q-1 33 -1 267.5 q0 234.5 1 268.5 l-154 0 q-18 -410 -244 -598 q-75 -62 -170 -93 q-14 53 -45 98 q174 50 266 193 q53 83 71.5 180 q18.5 97 16.5 220 l-202 0 Z" /><glyph glyph-name="uni4E5E" unicode="&#x4e5e;" d="M277 357 q-41 0 -80 -8 q3 30 2 51 q-67 -55 -147 -90 q-19 51 -53 92 q133 52 226 152 q51 53 83.5 124.5 q32.5 71.5 39.5 152.5 q56 -19 114 -26 q-27 -78 -66 -152 l394 0 q102 0 205 8 q-5 -47 0 -94 q-103 8 -205 8 l-439 0 q-52 -80 -111 -138 q18 -2 37 -2 l395 0 l-5 -83 q-34 -10 -64.5 -35.5 q-30.5 -25.5 -172.5 -156 q-142 -130.5 -159 -152 q-17 -21.5 1 -50 q18 -28.5 55 -28.5 l533 0 q25 0 44.5 17.5 q19.5 17.5 23.5 42.5 l20 167 q29 -39 77 -42 l-27 -183 q-5 -33 -26.5 -56 q-21.5 -23 -51.5 -23 l-596 0 q-92 5 -131 70 q-43 80 13 146 q18 19 155 145 q137 126 157 143 l-241 0 Z" /><glyph glyph-name="uni4E5F" unicode="&#x4e5f;" d="M296 -150 q-56 0 -93 38 q-37 38 -37 99 l0 426 l-80 -27 q-38 -13 -74 -32 q-10 45 -29 88 q40 5 79 18 l104 34 l0 117 q0 46 -9 91 q53 -5 106 0 q-9 -45 -9 -91 l0 -87 l211 69 l0 165 q0 46 -9 91 q53 -5 106 0 q-9 -45 -9 -91 l0 -135 l302 99 l0 -491 q0 -71 -36.5 -97.5 q-36.5 -26.5 -115.5 -24.5 l-65 1 q4 51 -6 101 q42 -4 61 -4 q19 0 29.5 -1 q10.5 -1 17 -1 q6.5 0 13.5 1 q13 1 13 16 l0 389 l-213 -70 l0 -236 q0 -118 9 -235 q-53 5 -106 0 q9 117 9 235 l0 206 l-211 -69 l0 -455 q0 -22 12.5 -38 q12.5 -16 31.5 -16 l558 0 q27 0 47.5 14.5 q20.5 14.5 25.5 37.5 l24 123 q39 -25 85 -28 l-36 -164 q-5 -29 -28.5 -47.5 q-23.5 -18.5 -53.5 -18.5 l-624 0 Z" /><glyph glyph-name="uni4E60" unicode="&#x4e60;" d="M29 52 q-13 53 -37 102 l230 81 l541 182 l7 -77 q-270 -95 -423 -154 q-153 -59 -318 -134 ZM449 393 q-111 119 -238 226 l70 57 q130 -111 245 -233 l-77 -50 ZM566 -148 q6 50 -9 98 q70 -6 102.5 -6 q32.5 0 54 -2 q21.5 -2 35.5 -2.5 q14 -0.5 29 1.5 q29 4 31 35 l35 743 l-741 0 q-40 0 -80 -8 q5 47 0 93 q40 -7 80 -7 l834 0 l-39 -809 q1 -75 -33 -115 q-42 -42 -119 -36 q-29 3 -71 9 q-58 8 -109 6 Z" /><glyph glyph-name="uni4E61" unicode="&#x4e61;" d="M921 395 q46 -36 98 -62 q-184 -255 -482 -406 q-105 -51 -237.5 -80.5 q-132.5 -29.5 -270.5 -21.5 q7 53 -5 105 q221 -14 390 46 q218 76 362 223 l-597 -18 l-2 78 q42 3 82 18 q221 83 357 166 l-469 -18 l-2 78 q34 0 66 19 l89 53 q34 21 48 31 q72 48 128 105 q60 59 95 140 q37 -38 81 -68 l-40 -35 q-142 -125 -294 -240 l325 6 l93 12 q83 68 146 148 q30 -43 69 -80 l-67 -48 q-68 -48 -139 -92 l-2 -16 l-22 1 q-154 -95 -317 -175 l361 6 l80 9 q43 55 76 116 Z" /><glyph glyph-name="uni4E66" unicode="&#x4e66;" d="M909 594 q-104 96 -222 181 l62 60 q123 -87 231 -187 l-71 -54 ZM491 -156 q-52 5 -104 0 q8 151 8 302 l0 145 l-321 0 q-39 0 -76 -7 q4 44 0 88 q37 -7 76 -7 l321 0 l0 201 l-263 0 q-39 0 -76 -7 q4 44 0 88 q37 -7 76 -7 l263 0 l0 119 q0 46 -8 90 q52 -5 104 0 q-8 -44 -8 -90 l0 -119 l317 0 l0 -275 l168 0 l0 -340 q0 -55 -21.5 -80.5 q-21.5 -25.5 -52 -34 q-30.5 -8.5 -55.5 -7.5 l-122 10 l-36 0 q5 50 -8 98 l132 -9 q25 -6 44.5 -7 q19.5 -1 25.5 5 q6 6 6 19 l0 272 l-398 0 l0 -145 q0 -151 8 -302 ZM483 365 l230 0 l0 201 l-230 0 l0 -201 Z" /><glyph glyph-name="uni4E70" unicode="&#x4e70;" d="M88 229 q-34 0 -69 -7 q5 40 0 80 q35 -6 69 -6 l416 0 q9 37 9 74 l0 224 q0 44 -8 87 q50 -5 101 0 q-9 -43 -9 -87 l0 -224 q0 -37 -7 -74 l116 0 q148 0 296 6 q-4 -40 0 -80 q-148 7 -296 7 l-73 0 l170 -153 l180 -175 l-71 -49 l-178 172 l-180 163 q-65 -133 -203.5 -231 q-138.5 -98 -297.5 -128 q-4 51 -26 97 q151 17 275.5 101.5 q124.5 84.5 178.5 202.5 l-393 0 ZM292 302 q-70 88 -156 166 l69 52 q90 -82 164 -175 l-77 -43 ZM349 516 q-49 83 -131 146 l62 58 q96 -73 152 -170 l-83 -34 ZM100 733 q5 40 0 80 q35 -7 70 -7 l806 0 l9 -76 q-25 -4 -37 -18 l-130 -162 l-65 52 l109 137 l-692 0 q-35 0 -70 -6 ZM557 195 l43 34 l-29 0 q-6 -17 -14 -34 Z" /><glyph glyph-name="uni4E71" unicode="&#x4e71;" d="M163 -154 l-84 0 l0 482 l177 -1 l0 142 l-178 0 q-34 0 -69 -7 q5 40 0 80 q35 -6 69 -6 l178 0 l0 135 q-117 -25 -224 -25 q3 43 -8 84 q273 -8 468 131 q22 -52 53 -98 q-106 -43 -205 -71 l0 -156 l80 0 q89 0 178 6 q-5 -40 0 -80 q-89 7 -178 7 l-80 0 l0 -142 l168 0 l0 -469 l-85 0 l0 82 l-260 0 l0 -94 ZM423 261 l-260 0 l0 -254 l260 0 l0 254 ZM932 120 q29 -23 72 -26 l-28 -217 q-3 -26 -14 -36 q-5 -3 -11 -3 l-174 0 q-46 0 -77.5 40 q-31.5 40 -31.5 105 l0 756 q0 48 -8 95 q45 -6 89 0 q-7 -47 -7 -95 l0 -756 q0 -23 10 -39.5 q10 -16.5 26 -16.5 l117 0 q12 1 14 14 q5 22 6 44 l17 135 Z" /><glyph glyph-name="uni4E73" unicode="&#x4e73;" d="M120 423 q-35 0 -69 -7 q4 40 0 80 q34 -6 69 -6 l302 0 q-24 20 -52 33 q80 67 128 197 q42 -28 89 -46 l-50 -72 q-34 -48 -58 -80 l-27 -32 l112 0 l9 -76 q-31 -2 -56 -19 l-135 -93 l0 -36 l231 57 l1 -67 q-147 -40 -232 -66 l0 -224 q0 -66 -41 -91 q-42 -25 -107 -21 l-18 0 q2 51 -6 101 q47 -9 60 -8 q28 -1 28 11 l0 206 q-140 -44 -270 -101 q-9 51 -29 100 l183 51 l116 30 l0 102 l111 77 l-289 0 ZM365 560 l-87 -25 l-65 154 q-47 -8 -92 -13 l101 -119 l-75 -44 l-104 120 l70 42 q-40 -5 -79 -7 q1 43 -12 83 q246 4 456 111 q14 -48 39 -92 q-110 -38 -214 -62 l62 -148 ZM958 115 q34 -24 84 -29 l-41 -216 q-3 -18 -13 -28 q-6 -4 -14 -4 l-175 0 q-54 0 -92 40 q-38 40 -38 105 l0 772 q0 47 -9 94 q53 -5 106 0 q-9 -47 -9 -94 l0 -772 q0 -23 12 -39.5 q12 -16.5 31 -16.5 l109 0 q16 3 19 19 l4 38 l26 131 Z" /><glyph glyph-name="uni4E86" unicode="&#x4e86;" d="M294 -47 q46 -4 66 -4 q20 0 31.5 -1 q11.5 -1 18.5 -1 q7 0 15 1 q14 2 15 18 l0 548 l251 174 l-545 0 q-43 0 -85 -8 q5 49 0 99 q42 -9 85 -9 l725 0 l4 -86 q-48 -12 -88 -40 l-257 -177 l0 -490 q0 -78 -39 -104.5 q-39 -26.5 -122 -23.5 q0 0 -68 2 q4 52 -7 102 Z" /><glyph glyph-name="uni4E88" unicode="&#x4e88;" d="M300 -49 q51 -5 73.5 -5 q22.5 0 36 -1.5 q13.5 -1.5 22 -2 q8.5 -0.5 17.5 0.5 q18 1 18 20 l0 449 l-393 0 q-39 0 -76 -8 q4 44 0 89 q37 -8 76 -8 l384 0 q-92 78 -192 149 l62 61 q85 -61 165 -126 l-32 49 l196 126 l-424 0 q-38 0 -76 -7 q5 44 0 88 q38 -7 76 -7 l597 0 l7 -80 q-44 -10 -82 -33 l-238 -155 l74 -64 l-1 -1 l402 0 l7 -80 q-28 -2 -44 -15 l-146 -134 l-59 64 l100 92 l-295 0 l0 -439 q0 -85 -53 -111 q-51 -21 -121 -12 q-27 3 -44 3 l-30 0 q4 49 -7 98 Z" /><glyph glyph-name="uni4E89" unicode="&#x4e89;" d="M1002 395 q-4 -40 0 -80 q-78 3 -156 5 l0 -182 l-306 0 l-1 -192 q-6 -63 -63 -82 q-45 -14 -111 -10 q2 51 -6 101 q48 -8 57 -8 q40 0 40 18 l0 173 l-224 0 q-35 0 -69 -6 q4 40 0 80 q34 -7 69 -7 l224 0 l0 116 l-358 0 q-34 0 -69 -6 q5 40 0 80 q35 -7 69 -7 l358 0 l0 129 l-268 0 q-65 -55 -137 -96 q-18 40 -49 71 q70 32 130 80 l0 12 l14 0 q121 103 181 255 q43 -26 90 -44 l-23 -38 l272 0 l9 -75 q-22 -3 -32.5 -16 q-10.5 -13 -61.5 -82 l265 0 l0 -194 q78 1 156 5 ZM540 205 l222 0 l0 116 l-222 0 l0 -116 ZM540 388 l222 0 l0 129 l-222 0 l0 -129 ZM477 584 l79 106 l-207 0 q-42 -57 -89 -106 l217 0 Z" /><glyph glyph-name="uni4E8B" unicode="&#x4e8b;" d="M394 -54 q55 0 55 28 l0 80 l-288 0 q-35 0 -69 -7 q4 40 0 80 q34 -6 69 -6 l288 0 l0 76 l-382 0 q-35 0 -69 -7 q4 40 0 80 q34 -6 69 -6 l382 0 l0 58 l-288 0 q-35 0 -69 -7 q4 40 0 80 q34 -6 69 -6 l288 0 l0 46 l-292 0 l0 219 l292 0 l0 44 l-369 0 q-35 0 -69 -7 q4 40 0 80 q34 -6 69 -6 l369 0 q0 42 -8 84 q50 -5 101 0 q-9 -42 -9 -84 l157 0 q146 0 292 6 q-5 -40 0 -80 q-146 7 -292 7 l-157 0 l0 -44 l291 0 l-3 -219 l-288 0 l0 -46 l311 0 l0 -124 q79 2 158 5 q-4 -40 0 -80 q-79 3 -158 5 l0 -168 l-85 0 l0 27 l-226 0 l0 -97 q-2 -68 -51 -91 q-37 -14 -80 -13 l-71 1 q3 49 -6 96 q39 -4 69 -4 ZM533 121 l226 0 l0 75 l-226 1 l0 -76 ZM533 264 l226 0 l0 58 l-226 0 l0 -58 ZM533 587 l0 -85 l205 0 l1 85 l-206 0 ZM449 587 l-207 0 l0 -85 l207 0 l0 85 Z" /><glyph glyph-name="uni4E8C" unicode="&#x4e8c;" d="M997 28 q-4 -47 0 -93 q-150 8 -300 8 l-617 0 q-40 0 -80 -8 q5 46 0 93 q40 -8 80 -8 l617 0 q150 0 300 8 ZM892 650 q-4 -46 0 -93 q-114 8 -229 8 l-453 0 q-40 0 -80 -8 q5 47 0 93 q40 -7 80 -7 l453 0 q115 0 229 7 Z" /><glyph glyph-name="uni4E8E" unicode="&#x4e8e;" d="M282 -48 q97 -13 157 -4 q20 5 21 25 l0 421 l-382 0 q-41 0 -80 -7 q4 46 0 93 q39 -8 80 -8 l382 0 l0 245 l-310 0 q-40 0 -80 -7 q5 46 0 93 q40 -8 80 -8 l495 0 q124 0 248 8 q-5 -47 0 -93 q-124 7 -248 7 l-97 0 l0 -245 l152 0 q151 0 302 8 q-4 -47 0 -93 q-151 7 -302 7 l-152 0 l-1 -443 q-5 -74 -67 -95 q-48 -16 -110 -7 q-36 3 -48 3 l-32 0 q4 50 -8 100 Z" /><glyph glyph-name="uni4E8F" unicode="&#x4e8f;" d="M429 -50 q74 -7 108 -7 q34 0 56.5 -3 q22.5 -3 38.5 -5 q16 -2 32 -2 q34 2 39 34 l50 277 l-504 0 l55 238 l-226 0 q-41 0 -80 -7 q4 46 0 93 q39 -8 80 -8 l622 0 q151 0 302 8 q-4 -47 0 -93 q-151 7 -302 7 l-305 0 l-37 -160 l499 0 l-65 -364 q-14 -79 -71 -108 q-52 -19 -118 -11 l-63 8 q-52 7 -101 5 q6 50 -10 98 ZM872 806 q-5 -46 0 -93 q-115 8 -231 8 l-455 0 q-40 0 -80 -8 q5 47 0 93 q40 -7 80 -7 l455 0 q116 0 231 7 Z" /><glyph glyph-name="uni4E91" unicode="&#x4e91;" d="M74 398 q-39 0 -76 -8 q4 44 0 89 q37 -8 76 -8 l626 0 q151 0 302 8 q-4 -44 0 -89 q-151 8 -302 8 l-252 0 q26 -16 54 -29 l-34 -43 q-132 -173 -252 -355 l459 19 l59 7 l-33 58 l-128 201 l84 39 l129 -204 l123 -210 l-87 -33 l-43 73 l-101 2 l-582 -32 l-4 74 q28 2 45 23 l122 151 q60 75 109 167 q23 45 37 92 l-331 0 ZM886 805 q-4 -44 0 -88 q-116 7 -233 7 l-466 0 q-38 0 -76 -7 q5 44 0 88 q38 -7 76 -7 l466 0 q117 0 233 7 Z" /><glyph glyph-name="uni4E92" unicode="&#x4e92;" d="M1002 -8 q-4 -44 0 -88 q-151 7 -302 7 l-626 0 q-39 0 -76 -7 q4 44 0 88 q37 -7 76 -7 l475 0 l31 204 l-379 0 l98 524 l-220 0 q-39 0 -76 -8 q4 44 0 89 q37 -8 76 -8 l570 0 q139 0 278 8 q-5 -44 0 -89 q-139 8 -278 8 l-261 0 l-31 -164 l365 0 l-84 -564 l62 0 q151 0 302 7 ZM591 262 l32 213 l-280 0 l-40 -213 l288 0 Z" /><glyph glyph-name="uni4E94" unicode="&#x4e94;" d="M1002 -9 q-4 -44 0 -88 q-151 7 -302 7 l-626 0 q-39 0 -76 -7 q4 44 0 88 q37 -7 76 -7 l221 0 l58 418 l-131 0 q-39 0 -76 -7 q4 44 0 88 q37 -7 76 -7 l141 0 l33 238 l-279 0 q-38 0 -76 -8 q5 44 0 89 q38 -8 76 -8 l566 0 q138 0 276 8 q-5 -44 0 -89 q-138 8 -276 8 l-199 0 l-33 -238 l297 0 l0 -492 q127 1 254 7 ZM661 -16 l0 418 l-220 0 l-59 -418 l279 0 Z" /><glyph glyph-name="uni4E95" unicode="&#x4e95;" d="M683 -156 q-52 5 -104 0 q8 151 8 302 l0 117 l-201 0 q-1 -146 -90 -268 q-89 -122 -236 -168 q-10 52 -37 98 q117 19 196 112 q79 93 80 226 l-221 0 q-39 0 -76 -7 q4 44 0 88 q37 -7 76 -7 l221 0 l0 216 l-180 0 q-38 0 -76 -7 q5 44 0 88 q38 -7 76 -7 l180 0 l0 132 q0 46 -9 90 q52 -5 104 0 q-8 -44 -8 -90 l0 -132 l201 0 l0 132 q0 46 -8 90 q52 -5 104 0 q-9 -44 -9 -90 l0 -132 q133 0 266 7 q-5 -44 0 -88 q-133 7 -266 7 l0 -216 l27 0 q151 0 301 7 q-4 -44 0 -88 q-150 7 -301 7 l-27 0 l0 -117 q0 -151 9 -302 ZM587 337 l0 216 l-201 0 l0 -216 l201 0 Z" /><glyph glyph-name="uni4E9A" unicode="&#x4e9a;" d="M1002 -18 q-4 -40 0 -80 q-151 7 -302 7 l-633 0 q-35 0 -69 -7 q4 40 0 80 q34 -6 69 -6 l259 0 l0 749 l-197 0 q-35 0 -69 -7 q4 40 0 80 q34 -6 69 -6 l530 0 q129 0 258 6 q-4 -40 0 -80 q-129 7 -258 7 l-4 0 l0 -502 q84 152 132 359 q47 -20 96 -29 q-92 -249 -195 -437 q-16 11 -33 19 l0 -159 l45 0 q151 0 302 6 ZM196 165 q-68 207 -154 408 l87 26 q87 -204 156 -413 l-89 -21 ZM570 -24 l0 749 l-159 0 l0 -749 l159 0 Z" /><glyph glyph-name="uni4E9B" unicode="&#x4e9b;" d="M977 -30 q-4 -37 0 -74 q-141 6 -282 6 l-593 0 q-32 0 -64 -6 q4 37 0 74 q32 -6 64 -6 l593 0 q141 0 282 6 ZM854 172 q-3 -37 0 -74 q-104 6 -209 6 l-424 0 q-32 0 -63 -6 q4 37 0 74 q31 -6 63 -6 l424 0 q105 0 209 6 ZM662 395 q0 -21 11 -36 q11 -15 29 -15 l194 1 q12 0 16 5.5 q4 5.5 6 9 q2 3.5 3.5 11 q1.5 7.5 2.5 10.5 l25 166 q36 -23 79 -24 l-38 -209 q-4 -40 -34 -41 l-255 0 q-52 0 -86.5 32 q-34.5 32 -34.5 90 l0 370 q0 42 -8 84 q49 -5 98 0 q-8 -42 -8 -84 l0 -175 q81 26 146 92 q38 40 64 88 q38 -32 81 -55 q-122 -152 -291 -208 l0 -112 ZM93 617 q0 43 -9 84 q49 -5 98 0 q-8 -41 -8 -84 l0 -271 l113 26 l0 372 q0 43 -8 84 q49 -5 98 0 q-8 -41 -8 -84 l0 -114 l100 0 q32 0 63 6 q-4 -37 0 -74 q-31 6 -63 6 l-100 0 l0 -177 l166 36 l1 -61 q-240 -60 -338 -94 q-98 -34 -174 -68 q-8 49 -27 96 l96 25 l0 292 Z" /><glyph glyph-name="uni4EA1" unicode="&#x4ea1;" d="M1002 598 q-4 -47 0 -94 q-151 8 -302 8 l-411 0 l0 -541 l653 0 l0 -77 l-741 0 l0 618 l-123 0 q-41 0 -80 -8 q4 47 0 94 q39 -8 80 -8 l622 0 q151 0 302 8 ZM496 610 q-58 102 -134 196 l80 45 q80 -99 142 -206 l-88 -35 Z" /><glyph glyph-name="uni4EA4" unicode="&#x4ea4;" d="M93 598 q-34 0 -69 -7 q5 40 0 81 q35 -7 69 -7 l382 0 q-53 73 -118 139 l72 49 q75 -76 135 -161 l-55 -27 l199 0 q147 0 294 7 q-4 -40 0 -81 q-147 7 -294 7 l-76 0 q171 -96 330 -206 l-60 -59 q-159 110 -331 206 l48 59 l-287 0 q35 -25 73 -43 q-52 -76 -120 -138 l63 19 q41 -141 147 -256 q91 121 111 270 q53 -18 109 -25 q-54 -168 -160 -302 q90 -77 203 -125.5 q113 -48.5 231 -61.5 q-43 -40 -50 -98 q-130 19 -244 76.5 q-114 57.5 -200 140.5 q-190 -196 -449 -228 q-3 52 -23 99 q117 11 225 60.5 q108 49.5 190 129.5 q-104 127 -161 293 q-105 -94 -231 -144 q-13 41 -39 76 q100 27 179 96 q79 69 129 161 l-222 0 Z" /><glyph glyph-name="uni4EA6" unicode="&#x4ea6;" d="M907 55 q-81 172 -180 337 l83 35 q100 -169 183 -344 l-86 -28 ZM187 431 q50 -9 100 -6 q-14 -113 -76 -209.5 q-62 -96.5 -160 -152.5 q-18 40 -49 71 q86 35 137 117 q51 82 48 180 ZM489 -50 q73 -11 120 -2 q14 3 15 18 l0 584 l-208 0 l0 -137 q0 -198 -90.5 -349.5 q-90.5 -151.5 -234.5 -231.5 q-19 48 -53 86 q134 56 214 184.5 q80 128.5 80 310.5 l0 137 l-236 0 q-35 0 -69 -7 q4 40 0 80 q34 -6 69 -6 l391 0 q-70 98 -155 187 l73 48 q90 -95 164 -199 l-74 -36 l214 0 q146 0 293 6 q-4 -40 0 -80 q-147 7 -293 7 l-1 -571 q5 -109 -79 -122 q-56 -8 -108 -3 l-26 0 q4 49 -6 96 Z" /><glyph glyph-name="uni4EA7" unicode="&#x4ea7;" d="M149 125 l0 315 l229 0 q-41 83 -96 159 l41 21 l-180 0 q-35 0 -69 -7 q4 40 0 80 q34 -6 69 -6 l326 0 l-63 127 l86 29 l74 -151 l-16 -5 l161 0 q137 0 274 6 q-4 -40 0 -80 q-137 7 -274 7 l-46 0 q38 -27 79 -46 l-52 -72 l-41 -61 l106 0 q123 0 245 7 q-4 -40 0 -80 q-122 6 -245 6 l-524 -1 l0 -248 q0 -94 -44.5 -172 q-44.5 -78 -123.5 -121 q-17 48 -50 87 q62 17 98 70.5 q36 53.5 36 135.5 ZM553 440 q47 58 103 180 l-281 0 q54 -80 95 -164 l-46 -16 l129 0 Z" /><glyph glyph-name="uni4EA9" unicode="&#x4ea9;" d="M218 -154 l-82 0 l-1 643 l728 0 l0 -643 l-83 0 l0 71 l-562 0 l0 -71 ZM1002 697 q-4 -38 0 -76 q-151 6 -302 6 l-636 0 q-33 0 -66 -6 q4 38 0 76 q33 -6 66 -6 l403 0 l-99 115 l75 44 l115 -135 l-42 -24 l184 0 q151 0 302 6 ZM538 -19 l242 0 l0 200 l-242 0 l0 -200 ZM456 -19 l0 200 l-238 0 l0 -200 l238 0 ZM538 245 l242 0 l0 180 l-242 0 l0 -180 ZM456 245 l0 180 l-237 0 l-1 -180 l238 0 Z" /><glyph glyph-name="uni4EAB" unicode="&#x4eab;" d="M1002 152 q-4 -42 0 -84 q-151 7 -302 7 l-135 0 l0 -115 q-3 -92 -82 -107 q-37 -6 -77.5 -2.5 q-40.5 3.5 -55.5 3.5 l-31 0 q4 48 -7 96 l109 -7 l22 -4 q36 -11 36 16 l0 120 l-409 0 q-36 0 -72 -7 q4 42 0 84 q36 -7 72 -7 l409 0 l0 73 l125 47 l-401 0 q-37 0 -73 -7 q5 42 0 84 q36 -7 73 -7 l650 0 l8 -78 q-45 -4 -87 -19 l-209 -79 l0 -14 l135 0 q151 0 302 7 ZM974 729 q-5 -42 0 -84 q-141 7 -282 7 l-580 0 q-37 0 -73 -7 q5 42 0 84 q36 -7 73 -7 l336 0 q-37 42 -80 79 l69 54 q70 -61 125 -133 l130 0 q141 0 282 7 ZM285 549 l0 -90 l435 0 l0 90 l-435 0 ZM200 619 l607 0 l-2 -230 l-605 0 l0 230 Z" /><glyph glyph-name="uni4EAC" unicode="&#x4eac;" d="M879 -134 q-101 129 -239 231 l61 58 q147 -109 255 -246 l-77 -43 ZM285 168 q39 -31 84 -54 q-147 -189 -318 -284 q-18 40 -48 71 q96 42 167 112 q71 70 115 155 ZM546 -37 q0 -62 -36 -86 q-48 -30 -136 -23 l-23 0 q3 51 -7 101 q67 -15 106 -11 q11 0 12 12 l0 272 l-254 0 l0 305 l585 0 l-2 -305 l-245 0 l0 -265 ZM1002 690 q-4 -40 0 -81 q-150 7 -299 7 l-627 0 q-35 0 -69 -7 q4 40 0 81 q34 -7 69 -7 l398 0 q-44 64 -98 122 l74 47 q72 -79 128 -166 l-7 -3 l132 0 q149 0 299 7 ZM293 466 l0 -171 l414 0 l1 171 l-415 0 Z" /><glyph glyph-name="uni4EAD" unicode="&#x4ead;" d="M533 -43 q0 -103 -132 -102 q0 0 -56 0 q4 50 -6 100 q50 -9 59 -9 q9 0 17 -1 l24 -4 q11 0 11 11 l0 166 l-234 0 q-33 0 -66 -6 q4 38 0 76 q33 -6 66 -6 l394 0 q99 0 198 6 q-5 -38 0 -76 q-99 6 -198 6 l-77 0 l0 -161 ZM97 145 l-83 0 l0 185 l972 -1 l0 -184 l-83 0 l0 120 l-806 0 l0 -120 ZM922 710 q-4 -38 0 -77 q-129 6 -258 6 l-532 0 q-33 0 -66 -6 q4 38 0 77 q33 -6 66 -6 l330 0 l-97 101 l71 47 l120 -124 l-37 -24 l145 0 q129 0 258 6 ZM310 529 l0 -82 l364 0 l1 82 l-365 0 ZM227 593 l531 0 l-1 -210 l-530 0 l0 210 Z" /><glyph glyph-name="uni4EAE" unicode="&#x4eae;" d="M922 -141 l-228 0 q-69 1 -99 40 q-23 29 -24 75 l0 170 l-180 0 l1 -52 q1 -42 -19.5 -81 q-20.5 -39 -53 -68.5 q-32.5 -29.5 -73.5 -53.5 q-72 -43 -159 -61 q-3 51 -23 97 q134 11 209 87 q37 38 36 81 l-1 116 l346 0 l0 -233 q0 -21 11.5 -37 q11.5 -16 29.5 -16 l172 1 q19 0 27 43 l19 100 q30 -27 69 -33 l-23 -121 q-10 -54 -37 -54 ZM95 178 l-82 0 l0 159 l972 0 l0 -159 l-83 0 l0 95 l-806 0 l-1 -95 ZM993 720 q-4 -38 0 -76 q-141 6 -283 6 l-592 0 q-33 0 -66 -6 q4 38 0 76 q33 -6 66 -6 l349 0 l-75 93 l76 43 l84 -105 l-54 -31 l212 0 q142 0 283 6 ZM291 542 l0 -88 l387 0 l1 88 l-388 0 ZM208 606 l555 0 l-2 -216 l-553 0 l0 216 Z" /><glyph glyph-name="uni4EB2" unicode="&#x4eb2;" d="M984 -20 l-58 -56 l-166 115 l-169 107 l52 60 l172 -109 l169 -117 ZM273 200 q38 -29 81 -49 q-128 -180 -305 -272 q-16 38 -44 69 q88 34 156 100.5 q68 66.5 112 151.5 ZM370 -143 q3 46 -6 91 q41 -4 58.5 -4 q17.5 0 28 -1 q10.5 -1 16.5 -1 q6 0 13 1 q13 2 13 16 l0 250 l-313 0 q-31 0 -61 -6 q4 35 0 71 q30 -6 61 -6 l313 0 l0 117 l-389 0 q-31 0 -61 -6 q3 35 0 71 q30 -6 61 -6 l266 0 q-49 82 -112 156 l63 38 l-146 0 q-31 0 -61 -6 q3 35 0 71 q30 -6 61 -6 l313 0 q-33 58 -74 111 l75 40 q55 -72 96 -151 l129 0 q130 0 259 6 q-4 -36 0 -71 q-129 6 -259 6 l-32 0 q38 -25 81 -41 l-102 -153 l52 0 q145 0 289 6 q-4 -36 0 -71 q-144 6 -289 6 l-139 0 l0 -117 l146 0 q129 0 258 6 q-3 -35 0 -71 q-129 6 -258 6 l-146 0 l0 -240 q0 -70 -35.5 -93.5 q-35.5 -23.5 -107.5 -20.5 l-61 2 ZM562 444 q72 73 115 194 l-343 0 q65 -77 115 -162 l-79 -32 l192 0 Z" /><glyph glyph-name="uni4EBA" unicode="&#x4eba;" d="M443 818 q59 -6 119 0 q1 -108 -15 -222 q22 -236 154 -413 q123 -160 317 -258 q-57 -26 -85 -82 q-317 171 -430 556 q-75 -255 -229 -413 q-96 -99 -221 -157 q-20 51 -56 92 q122 51 217 147 q95 96 151 215.5 q56 119.5 76.5 258 q20.5 138.5 1.5 276.5 Z" /><glyph glyph-name="uni4EBF" unicode="&#x4ebf;" d="M471 660 q-46 0 -90 -9 q5 53 0 105 q44 -9 90 -9 l400 1 l-2 -90 q-34 -24 -51.5 -49.5 q-17.5 -25.5 -174 -270.5 q-156.5 -245 -175 -271 q-18.5 -26 -18.5 -51 q0 -25 21 -25 l402 0 q21 0 36 16 q15 16 19 40 l26 155 q31 -40 83 -44 l-32 -177 q-5 -33 -22 -55.5 q-17 -22.5 -44 -22.5 l-471 0 q-41 0 -70.5 31.5 q-29.5 31.5 -33 78.5 q-3.5 47 26.5 103 q21 35 174.5 273 q153.5 238 176.5 271 l-271 0 ZM376 803 q-52 -149 -127 -280 l0 -467 q0 -106 9 -212 q-51 5 -102 0 q8 106 8 212 l0 341 q-47 -60 -105 -108 q-29 45 -71 77 q139 101 218 259 q48 98 61 207 q51 -19 109 -29 Z" /><glyph glyph-name="uni4EC0" unicode="&#x4ec0;" d="M704 -156 q-54 5 -108 0 q9 149 9 298 l0 260 l-171 0 q-43 0 -85 -8 q5 49 0 98 q42 -8 85 -8 l171 0 l0 258 q0 47 -9 93 q54 -5 108 0 q-9 -46 -9 -93 l0 -258 l111 0 q98 0 197 8 q-6 -49 0 -98 q-99 8 -197 8 l-111 0 l0 -260 q0 -149 9 -298 ZM404 808 q-52 -169 -130 -319 l0 -446 q0 -100 10 -199 q-59 5 -117 0 q9 99 9 199 l0 291 q-46 -61 -103 -113 q-39 40 -92 66 q163 136 247 329 q42 103 48 212 q59 -16 128 -20 Z" /><glyph glyph-name="uni4EC1" unicode="&#x4ec1;" d="M1003 21 q-6 -50 0 -99 q-107 8 -213 8 l-408 0 q-43 0 -85 -8 q5 49 0 99 q42 -9 85 -9 l408 0 q106 0 213 9 ZM944 641 q-5 -50 0 -99 q-86 8 -172 8 l-312 0 q-43 0 -85 -8 q5 49 0 99 q42 -8 85 -8 l312 0 q86 0 172 8 ZM406 808 q-52 -169 -130 -319 l0 -446 q0 -100 9 -199 q-59 5 -118 0 q10 99 10 199 l0 291 q-47 -61 -103 -113 q-40 40 -93 66 q164 136 248 329 q42 103 49 212 q59 -16 128 -20 Z" /><glyph glyph-name="uni4EC5" unicode="&#x4ec5;" d="M391 656 q6 49 0 99 q42 -9 85 -9 l411 0 q13 -168 -31.5 -325.5 q-44.5 -157.5 -138.5 -289.5 q123 -129 299 -203 q-56 -29 -80 -87 q-163 75 -283 210 q-134 -151 -316 -231 q-41 58 -99 99 q209 52 357 207 q-90 128 -135 289 q-34 121 -40 246 q-14 -2 -29 -5 ZM500 664 q7 -259 157 -462 q73 100 109.5 218.5 q36.5 118.5 32.5 243.5 l-299 0 ZM368 808 q-47 -169 -118 -319 l0 -446 q0 -100 9 -199 q-53 5 -107 0 q9 99 9 199 l0 291 q-43 -61 -94 -113 q-36 40 -84 66 q149 136 225 329 q38 103 44 212 q54 -16 116 -20 Z" /><glyph glyph-name="uni4EC6" unicode="&#x4ec6;" d="M703 141 q0 -149 9 -297 q-54 5 -108 0 q9 148 9 297 l0 596 q0 47 -9 93 q54 -5 108 0 q-9 -46 -9 -93 l0 -228 l29 19 l142 -159 l136 -167 l-83 -45 l-134 164 l-90 100 l0 -280 ZM435 803 q-60 -149 -147 -280 l0 -467 q0 -106 10 -212 q-59 5 -118 0 q10 106 10 212 l0 341 q-55 -60 -122 -108 q-34 45 -82 77 q161 101 253 259 q55 98 70 207 q58 -19 126 -29 Z" /><glyph glyph-name="uni4EC7" unicode="&#x4ec7;" d="M529 354 l0 134 l-94 0 q-43 0 -85 -8 q5 50 0 99 q42 -8 85 -8 l94 0 l0 164 q0 47 -9 93 q54 -6 108 0 q-9 -46 -9 -93 l0 -164 l212 0 l0 -584 q0 -22 12.5 -38 q12.5 -16 31.5 -16 l37 0 q12 0 15 9 q1 25 0 50 l25 139 q31 -37 80 -42 l-30 -166 l-4 -49 q-1 -9 -7 -16.5 q-6 -7.5 -17 -7.5 l-100 0 q-56 0 -93.5 36 q-37.5 36 -39.5 96 q-2 31 -2 253 q0 222 2 253 l-122 0 l0 -134 q0 -181 -73 -315 q-73 -134 -196 -209 q-22 51 -60 90 q112 49 175.5 157.5 q63.5 108.5 63.5 276.5 ZM369 808 q-48 -169 -118 -319 l0 -446 q0 -100 8 -199 q-53 5 -107 0 q9 99 9 199 l0 291 q-42 -61 -94 -113 q-36 40 -84 66 q149 136 226 329 q38 103 44 212 q54 -16 116 -20 Z" /><glyph glyph-name="uni4ECA" unicode="&#x4eca;" d="M167 154 q5 49 0 99 q42 -8 84 -8 l559 0 l-257 -422 l-77 47 l178 292 l-403 0 q-42 0 -84 -8 ZM503 286 q-50 91 -118 174 l82 47 q72 -89 126 -186 l-90 -35 ZM484 845 q29 -19 60 -35 l10 5 l6 -12 q15 -7 30 -13 l-13 -20 q99 -172 287 -272 q70 -39 143 -69 q-54 -30 -78 -90 q-133 60 -235 157 q-63 58 -103 112.5 q-40 54.5 -63 89.5 q-43 -61 -91 -119 q-109 -133 -216 -218 q-78 -61 -166 -107 q-23 52 -60 91 q227 107 372 291 q73 95 117 209 Z" /><glyph glyph-name="uni4ECB" unicode="&#x4ecb;" d="M725 -156 q-54 5 -108 0 q9 88 9 177 l0 317 q0 47 -9 93 q54 -6 108 0 q-9 -46 -9 -93 l0 -317 q0 -89 9 -177 ZM312 429 q60 -7 119 0 q2 -173 -35 -307 q-40 -145 -147 -227 q-70 -55 -157 -70 q-6 54 -31 103 q68 7 127 45 q125 78 130 268 l-6 188 ZM484 846 q29 -19 60 -33 l10 4 l6 -12 q15 -6 30 -12 l-13 -19 q99 -165 287 -261 q70 -38 143 -67 q-54 -29 -78 -86 q-133 57 -235 150 q-63 57 -103 109 q-40 52 -63 86 q-43 -59 -91 -115 q-109 -128 -216 -209 q-78 -59 -166 -103 q-23 50 -60 87 q227 103 372 280 q73 92 117 201 Z" /><glyph glyph-name="uni4ECD" unicode="&#x4ecd;" d="M491 408 l0 267 q-58 2 -110 -8 q5 50 0 99 q42 -8 85 -8 l431 0 l-71 -320 l142 0 l0 -466 q0 -105 -84 -121 q-38 -6 -79.5 -3 q-41.5 3 -57.5 3 l-30 0 q4 51 -8 102 q52 -5 75 -5 q23 0 36 -2 q20 -3 39 -3 q19 2 19 20 l0 393 l-163 0 l71 319 l-205 0 l0 -267 q0 -374 -240 -573 q-29 46 -72 80 q93 58 147 153 q75 130 75 340 ZM385 803 q-53 -149 -130 -280 l0 -467 q0 -106 9 -212 q-52 5 -104 0 q8 106 8 212 l0 341 q-48 -60 -107 -108 q-31 45 -73 77 q143 101 223 259 q49 98 63 207 q51 -19 111 -29 Z" /><glyph glyph-name="uni4ECE" unicode="&#x4ece;" d="M608 572 l0 187 q0 46 -9 90 q52 -5 104 0 q-8 -44 -8 -90 l-1 -217 q28 -206 122 -353 q89 -145 208 -264 q-60 -6 -103 -49 q-177 188 -259 458 q-49 -168 -160.5 -300 q-111.5 -132 -270.5 -204 q-16 50 -49 92 q192 73 303 234 q58 81 90.5 188.5 q32.5 107.5 32.5 227.5 ZM5 -88 q234 159 231 550 l0 272 q0 45 -9 90 q52 -6 105 0 q-9 -45 -9 -90 l0 -283 l11 7 q98 -123 179 -254 l-85 -37 q-52 85 -112 166 q-33 -313 -239 -496 q-29 44 -72 75 Z" /><glyph glyph-name="uni4ED3" unicode="&#x4ed3;" d="M874 -152 l-450 0 q-58 0 -95.5 40 q-37.5 40 -37.5 98 l-1 461 l442 0 l0 -254 q0 -111 -141 -111 l-59 1 q3 54 -7 108 q53 -10 62.5 -10 q9.5 0 17.5 -1 l25 -3 q12 0 12 12 l0 175 l-262 0 l1 -378 q0 -21 13 -36 q13 -15 32 -15 l385 0 q43 4 53 44 l25 103 q40 -24 86 -30 l-37 -145 q-6 -25 -23.5 -42 q-17.5 -17 -40.5 -17 ZM484 846 q29 -18 60 -33 l10 5 l6 -12 q15 -6 30 -12 l-13 -19 q99 -164 287 -259 q70 -37 143 -67 q-54 -28 -78 -85 q-133 57 -235 149 q-63 56 -103 107.5 q-40 51.5 -63 85.5 q-43 -58 -91 -114 q-109 -127 -216 -207 q-78 -58 -166 -102 q-23 50 -60 86 q227 103 372 278 q73 91 117 199 Z" /><glyph glyph-name="uni4ED4" unicode="&#x4ed4;" d="M1003 400 q-6 -49 0 -99 q-103 8 -206 8 l-98 0 l-1 -359 q-4 -38 -26 -64 q-47 -42 -149 -35 q3 54 -6 108 q49 -9 55 -9 q37 0 37 18 l0 341 l-202 0 q-43 0 -85 -8 q5 50 0 99 q42 -8 85 -8 l202 0 l0 175 l171 138 l-310 0 q-43 0 -85 -9 q6 50 0 99 q43 -8 85 -8 l475 0 l4 -86 q-37 -7 -67 -30 l-183 -147 l0 -132 l98 0 q103 0 206 8 ZM377 808 q-48 -169 -121 -319 l0 -446 q0 -100 9 -199 q-55 5 -109 0 q9 99 9 199 l0 291 q-44 -61 -97 -113 q-36 40 -86 66 q153 136 231 329 q39 103 45 212 q55 -16 119 -20 Z" /><glyph glyph-name="uni4ED6" unicode="&#x4ed6;" d="M383 567 q0 46 -9 91 q53 -5 106 0 q-12 -75 -8 -162 l125 42 l0 196 q0 46 -9 91 q53 -5 106 0 q-9 -45 -9 -91 l0 -167 l238 79 l0 -393 q0 -46 -19 -72 q-38 -50 -142 -43 l-45 0 q4 53 -7 106 q68 -14 112 -12 q12 1 12 14 l0 289 l-149 -50 l0 -193 q0 -115 9 -229 q-53 5 -106 0 q9 114 9 229 l0 164 l-125 -42 l0 -424 q0 -23 12 -40 q12 -17 31 -17 l362 0 q40 0 51 67 l25 155 q39 -26 85 -27 l-35 -198 q-13 -80 -60 -80 l-429 0 q-56 0 -93.5 38.5 q-37.5 38.5 -37.5 101.5 l0 395 q-56 -17 -104 -43 q-10 46 -30 88 q72 12 134 37 l0 100 ZM359 808 q-46 -169 -115 -319 l0 -446 q0 -100 8 -199 q-52 5 -104 0 q9 99 9 199 l0 291 q-42 -61 -92 -113 q-35 40 -82 66 q145 136 220 329 q37 103 43 212 q52 -16 113 -20 Z" /><glyph glyph-name="uni4ED7" unicode="&#x4ed7;" d="M729 818 l4 -215 l24 0 q104 0 207 8 q-5 -47 0 -93 q-103 7 -207 7 l-24 0 q-3 -252 -73 -405 q147 -118 343 -136 q-44 -43 -51 -104 q-195 27 -341 153 q-44 -62 -103 -111 q-85 -68 -190 -96 q-10 53 -37 99 q173 41 264 173 q-75 86 -120 194.5 q-45 108.5 -54 225.5 l80 5 q7 -193 141 -340 q30 74 37 156.5 q7 82.5 1 185.5 l-271 0 q-40 0 -80 -7 q5 46 0 93 q40 -8 80 -8 l265 0 q-12 152 -12 215 q59 -6 117 0 ZM343 808 q-44 -169 -110 -319 l0 -446 q0 -100 8 -199 q-50 5 -99 0 q8 99 8 199 l0 291 q-40 -61 -88 -113 q-33 40 -78 66 q139 136 210 329 q35 103 41 212 q50 -16 108 -20 Z" /><glyph glyph-name="uni4ED8" unicode="&#x4ed8;" d="M559 150 q-84 120 -185 232 l78 49 q104 -115 191 -240 l-84 -41 ZM606 -47 q75 -11 120 -1 q20 3 22 23 l0 513 l-312 0 q-40 0 -80 -8 q5 46 0 93 q40 -8 80 -8 l312 0 l0 171 q0 46 -9 92 q53 -6 106 0 q-9 -46 -9 -92 l0 -170 q83 1 166 7 q-4 -47 0 -93 q-83 6 -166 7 l0 -531 q-5 -62 -46 -89 q-44 -21 -114 -16 l-63 1 q3 51 -7 101 ZM411 808 q-53 -169 -132 -319 l0 -446 q0 -100 10 -199 q-59 5 -119 0 q10 99 10 199 l0 291 q-48 -61 -105 -113 q-40 40 -94 66 q166 136 252 329 q42 103 49 212 q60 -16 129 -20 Z" /><glyph glyph-name="uni4ED9" unicode="&#x4ed9;" d="M951 -156 q-53 5 -106 0 q3 37 5 74 l-483 0 l0 573 q0 46 -9 91 q53 -5 107 0 q-9 -45 -9 -91 l0 -496 l156 0 l0 729 q0 46 -9 91 q53 -5 106 0 q-9 -45 -9 -91 l0 -729 l153 0 l1 496 q0 46 -9 91 q53 -5 106 0 q-9 -45 -9 -91 l0 -425 q0 -111 9 -222 ZM357 808 q-46 -169 -115 -319 l0 -446 q0 -100 9 -199 q-52 5 -104 0 q9 99 9 199 l0 291 q-41 -61 -91 -113 q-35 40 -82 66 q145 136 219 329 q37 103 42 212 q52 -16 113 -20 Z" /><glyph glyph-name="uni4EE3" unicode="&#x4ee3;" d="M812 574 q-43 81 -101 155 l80 45 q64 -79 110 -167 l-89 -33 ZM549 815 q53 -5 107 0 l-9 -295 l145 14 q104 10 206 28 q0 -47 9 -93 q-104 -2 -207 -12 l-152 -15 q9 -250 143 -381 q54 -56 124 -91 q0 76 -24 150 q64 -6 127 0 q-33 -105 -19 -215 q-2 -32 -28 -46 q-15 -9 -34 -4 q-143 59 -239.5 179 q-96.5 120 -124.5 272 q-11 55 -14 127 l-157 -15 q-40 -4 -79 -15 q0 47 -9 92 q40 -3 80 0 l164 16 l-9 304 ZM393 803 q-54 -149 -132 -280 l0 -467 q0 -106 9 -212 q-54 5 -107 0 q9 106 9 212 l0 341 q-50 -60 -110 -108 q-31 45 -75 77 q146 101 229 259 q50 98 64 207 q52 -19 113 -29 Z" /><glyph glyph-name="uni4EE4" unicode="&#x4ee4;" d="M259 214 q-41 0 -81 -8 q5 47 0 93 q40 -8 81 -8 l599 0 l-292 -321 l97 -77 l-68 -58 q-145 119 -305 224 l60 64 l145 -100 l173 191 l-409 0 ZM518 327 q-44 90 -128 157 l68 59 q98 -79 150 -185 l-90 -31 ZM484 843 q29 -20 60 -36 l10 5 l6 -13 q15 -7 30 -13 l-13 -21 q99 -182 287 -288 q70 -41 143 -73 q-54 -32 -78 -95 q-133 63 -235 166 q-63 62 -103 119 q-40 57 -63 94 q-43 -64 -91 -126 q-109 -141 -216 -230 q-78 -64 -166 -112 q-23 54 -60 95 q227 113 372 307 q73 102 117 221 Z" /><glyph glyph-name="uni4EE5" unicode="&#x4ee5;" d="M705 453 l0 306 q0 46 -9 90 q52 -5 104 0 q-8 -44 -8 -90 l0 -306 q0 -108 -44 -211 q152 -164 263 -350 l-86 -35 q-95 158 -221 300 q-74 -120 -197 -208 q-123 -88 -267 -122 q-7 52 -31 99 q140 22 254.5 101 q114.5 79 178 191.5 q63.5 112.5 63.5 234.5 ZM452 462 q-71 144 -159 281 l84 38 q91 -141 164 -289 l-89 -30 ZM60 827 q52 -6 105 0 q-9 -45 -9 -90 l0 -654 l209 186 q35 33 66 69 l44 -67 q-35 -22 -64 -50 l-304 -297 l-56 58 q18 40 18 83 l0 672 q0 45 -9 90 Z" /><glyph glyph-name="uni4EEA" unicode="&#x4eea;" d="M637 572 q-51 121 -119 235 l87 36 q71 -118 124 -243 l-92 -28 ZM1019 -78 q-58 -22 -88 -76 q-155 93 -273 239 q-142 -163 -327 -255 q-20 50 -57 89 q189 84 328 242 q-84 125 -133 271 q-49 146 -57 298 l79 3 q10 -277 170 -500 q170 233 176 523 q57 -10 116 -9 q-21 -159 -81 -309 q-60 -150 -154 -278 q120 -134 301 -238 ZM370 808 q-47 -169 -118 -319 l0 -446 q0 -100 9 -199 q-54 5 -108 0 q9 99 9 199 l0 291 q-43 -61 -95 -113 q-36 40 -84 66 q150 136 226 329 q39 103 45 212 q54 -16 116 -20 Z" /><glyph glyph-name="uni4EEC" unicode="&#x4eec;" d="M703 -48 q80 -11 126 -2 q19 3 19 22 l0 684 l-176 0 q-41 0 -81 -7 q5 46 0 93 q40 -8 81 -8 l265 0 l0 -748 q6 -119 -85 -132 q-61 -7 -116 -2 l-27 0 q4 51 -6 100 ZM438 -156 q-53 5 -107 0 q9 108 9 217 l0 413 q0 46 -9 92 q53 -6 107 0 q-9 -46 -9 -92 l0 -413 q0 -109 9 -217 ZM466 615 q-44 73 -104 138 l78 49 q65 -71 113 -151 l-87 -36 ZM317 808 q-41 -169 -102 -319 l0 -446 q0 -100 8 -199 q-46 5 -92 0 q8 99 8 199 l0 291 q-37 -61 -81 -113 q-31 40 -73 66 q129 136 194 329 q33 103 38 212 q47 -16 100 -20 Z" /><glyph glyph-name="uni4EF0" unicode="&#x4ef0;" d="M735 -156 q-52 5 -104 0 q8 123 8 247 l0 609 l318 0 l0 -507 q1 -70 -39 -99 q-35 -23 -83 -22 l-57 0 q3 53 -5 105 q59 -16 91 -5 q6 4 6 11 l0 443 l-144 0 l0 -535 q0 -124 9 -247 ZM444 604 l0 -418 l98 66 q20 16 38 35 l38 -70 q-19 -5 -34 -17 l-194 -161 l-51 62 q18 27 18 59 l0 429 q0 45 -9 90 q19 -2 38 -3 l-2 3 q73 5 128.5 47 q55.5 42 87.5 99 q38 -35 83 -61 q-102 -116 -239 -160 ZM389 808 q-50 -169 -125 -319 l0 -446 q0 -100 10 -199 q-57 5 -113 0 q9 99 9 199 l0 291 q-45 -61 -99 -113 q-38 40 -89 66 q157 136 238 329 q40 103 47 212 q56 -16 122 -20 Z" /><glyph glyph-name="uni4EF6" unicode="&#x4ef6;" d="M259 375 q155 121 149 366 q51 -4 103 2 q0 -77 -26 -162 l143 0 l0 152 q0 45 -8 90 q52 -6 104 0 q-8 -45 -8 -90 l0 -152 l72 0 q83 0 166 7 q-5 -44 0 -88 q-116 9 -238 7 l0 -205 l81 0 q103 0 205 8 q-4 -45 0 -89 q-102 8 -205 8 l-81 0 l0 -91 q0 -147 8 -294 q-52 5 -104 0 q8 147 8 294 l0 91 l-231 0 q-38 0 -76 -8 q5 44 0 89 q38 -8 76 -8 l231 0 l0 205 l-171 0 q-47 -107 -131 -189 q-28 34 -67 57 ZM360 808 q-46 -169 -115 -319 l0 -446 q0 -100 8 -199 q-52 5 -104 0 q8 99 8 199 l0 291 q-41 -61 -92 -113 q-34 40 -82 66 q146 136 221 329 q37 103 43 212 q52 -16 113 -20 Z" /><glyph glyph-name="uni4EF7" unicode="&#x4ef7;" d="M807 -156 q-52 5 -104 0 q8 90 8 181 l0 329 q0 46 -8 90 q50 -5 99 0 q-109 85 -176 217 q-97 -167 -215 -266 q-63 -53 -136 -90 q-21 48 -57 86 q137 62 237.5 174.5 q100.5 112.5 130.5 264.5 q52 -23 109 -35 q-11 -25 -23 -50 q41 -106 127 -176 q86 -70 213 -117 q-52 -31 -72 -89 q-71 30 -134 78 q-7 -43 -7 -87 l0 -329 q0 -91 8 -181 ZM473 139 l0 213 q0 45 -9 90 q52 -6 104 0 q-8 -45 -8 -90 l0 -213 q0 -101 -70.5 -190 q-70.5 -89 -183.5 -122 q-8 52 -34 99 q84 7 142.5 68.5 q58.5 61.5 58.5 144.5 ZM372 803 q-51 -149 -125 -280 l0 -467 q0 -106 8 -212 q-50 5 -101 0 q9 106 9 212 l0 341 q-47 -60 -104 -108 q-29 45 -71 77 q138 101 216 259 q48 98 61 207 q50 -19 107 -29 Z" /><glyph glyph-name="uni4EFB" unicode="&#x4efb;" d="M975 -6 q-5 -44 0 -88 q-93 7 -187 7 l-357 0 q-38 0 -76 -7 q5 44 0 88 q38 -7 76 -7 l181 0 l0 333 l-198 0 q-38 0 -76 -7 q5 44 0 88 q38 -7 76 -7 l198 0 l0 238 q-123 -28 -237 -34 q1 44 -13 86 q298 8 504 144 q20 -54 51 -102 q-119 -43 -218 -71 l0 -261 l103 0 q100 0 200 7 q-4 -44 0 -88 q-100 7 -200 7 l-103 0 l0 -333 l89 0 q94 0 187 7 ZM393 803 q-54 -149 -133 -280 l0 -467 q0 -106 9 -212 q-53 5 -106 0 q9 106 9 212 l0 341 q-50 -60 -110 -108 q-31 45 -75 77 q146 101 229 259 q49 98 63 207 q53 -19 114 -29 Z" /><glyph glyph-name="uni4EFD" unicode="&#x4efd;" d="M530 317 q-60 2 -113 -7 q4 30 3 55 q-45 -59 -101 -108 q-32 41 -77 70 q114 89 181.5 211.5 q67.5 122.5 70.5 262.5 q56 -14 113 -16 q-59 -231 -167 -391 q27 -3 54 -3 l322 0 q-109 174 -132 406 l78 6 q7 -142 75.5 -261 q68.5 -119 186.5 -233 q-60 -7 -102 -52 q-36 37 -68 79 l0 -367 q0 -58 -30 -88 q-45 -36 -148 -28 l-23 0 q3 52 -7 104 q66 -14 109 -10 q12 1 12 14 l0 356 l-123 0 q-6 -118 -55.5 -229 q-49.5 -111 -121.5 -179 q-55 -52 -126 -80 q-17 50 -50 92 q56 18 108 56.5 q52 38.5 82 91 q30 52.5 39.5 111.5 q9.5 59 9.5 137 ZM380 808 q-49 -169 -122 -319 l0 -446 q0 -100 9 -199 q-55 5 -110 0 q9 99 9 199 l0 291 q-44 -61 -97 -113 q-37 40 -87 66 q154 136 233 329 q39 103 45 212 q56 -16 120 -20 Z" /><glyph glyph-name="uni4EFF" unicode="&#x4eff;" d="M665 -49 q48 -5 69 -5 q21 0 33 -1 q12 -1 20 -2 q8 -1 16 0 q17 1 17 18 l0 371 l-204 0 q0 -170 -74.5 -299.5 q-74.5 -129.5 -194.5 -200.5 q-20 48 -56 87 q109 47 173.5 152.5 q64.5 105.5 64.5 261.5 l0 195 l-111 0 q-38 0 -76 -7 q5 44 0 88 q38 -7 76 -7 l385 0 q100 0 199 7 q-4 -44 0 -88 q-99 7 -199 7 l-187 0 l0 -122 l291 0 l0 -437 q0 -80 -51 -105 q-48 -20 -114 -13 l-70 2 q4 50 -7 98 ZM633 630 q-63 91 -142 173 l75 50 q83 -87 150 -183 l-83 -40 ZM403 803 q-55 -149 -136 -280 l0 -467 q0 -106 9 -212 q-54 5 -109 0 q9 106 9 212 l0 341 q-51 -60 -112 -108 q-32 45 -77 77 q150 101 234 259 q52 98 66 207 q54 -19 116 -29 Z" /><glyph glyph-name="uni4F01" unicode="&#x4f01;" d="M1002 -16 q-4 -44 0 -88 q-140 7 -280 7 l-575 0 q-38 0 -76 -7 q5 44 0 88 q38 -7 76 -7 l124 0 l0 279 q0 45 -9 90 q53 -6 105 0 q-9 -45 -9 -90 l0 -279 l164 0 l0 433 q0 45 -9 90 q52 -6 105 0 q-9 -45 -9 -90 l0 -113 l161 0 q46 0 91 7 q-5 -44 0 -88 q-45 7 -91 7 l-161 0 l0 -246 l113 0 q140 0 280 7 ZM484 845 q29 -18 60 -33 l10 5 l6 -13 q15 -6 30 -12 l-13 -19 q99 -168 287 -265 q70 -38 143 -68 q-54 -29 -78 -87 q-133 58 -235 152 q-63 57 -103 110 q-40 53 -63 87 q-43 -59 -91 -116 q-109 -130 -216 -212 q-78 -60 -166 -104 q-23 50 -60 88 q227 105 372 283 q73 94 117 204 Z" /><glyph glyph-name="uni4F0D" unicode="&#x4f0d;" d="M1002 -12 q-4 -44 0 -88 q-112 7 -224 7 l-445 0 q-39 0 -77 -7 q5 44 0 88 q75 -11 160 -7 l59 390 q-85 3 -159 -8 q4 45 0 89 q37 -8 76 -8 l95 0 l40 263 l-123 0 q-38 0 -76 -7 q5 44 0 88 q38 -7 76 -7 l350 0 q92 0 184 7 q-5 -44 0 -88 q-92 7 -184 7 l-139 0 l-40 -263 l278 0 l0 -462 q75 1 149 6 ZM766 -19 l0 390 l-202 0 l-60 -390 l262 0 ZM287 808 q-37 -169 -92 -319 l0 -446 q0 -100 7 -199 q-42 5 -84 0 q7 99 7 199 l0 291 q-33 -61 -73 -113 q-28 40 -65 66 q116 136 175 329 q30 103 35 212 q42 -16 90 -20 Z" /><glyph glyph-name="uni4F0F" unicode="&#x4f0f;" d="M790 587 q-62 74 -138 138 l67 56 q83 -68 150 -149 l-79 -45 ZM270 -82 q132 64 205.5 196 q73.5 132 71.5 335 l-142 0 q-38 0 -76 -7 q5 44 0 88 q38 -7 76 -7 l142 0 l0 202 q0 46 -8 90 q52 -5 104 0 q-9 -44 -9 -90 l0 -202 l133 0 q95 0 190 7 q-5 -44 0 -88 q-95 7 -190 7 l-80 0 q8 -310 202 -450 q58 -44 126 -73 q-54 -27 -78 -83 q-257 131 -313 459 q-24 -153 -98.5 -273 q-74.5 -120 -195.5 -196 q-22 47 -60 85 ZM357 808 q-46 -169 -114 -319 l0 -446 q0 -100 8 -199 q-52 5 -104 0 q9 99 9 199 l0 291 q-41 -61 -91 -113 q-35 40 -82 66 q145 136 219 329 q37 103 43 212 q52 -16 112 -20 Z" /><glyph glyph-name="uni4F10" unicode="&#x4f10;" d="M784 645 q-58 68 -130 126 l66 58 q79 -63 143 -138 l-79 -46 ZM624 116 q-82 135 -81 361 l-162 -17 q-38 -5 -74 -16 q0 45 -10 88 q38 -3 77 1 l168 18 l-8 274 q53 -5 105 0 l-7 -265 l117 13 q98 11 194 28 q0 -44 9 -88 q-98 -3 -195 -13 l-127 -14 q2 -191 55 -303 q99 124 135 277 q53 -24 109 -36 q-75 -179 -196 -319 q69 -91 178 -139 q-7 99 -38 191 q63 -2 125 9 q-23 -129 0 -258 q1 -32 -23 -47 q-15 -10 -34 -6 q-162 52 -268 186 q-152 -149 -338 -213 q-14 51 -44 95 q193 56 333 193 ZM367 808 q-47 -169 -117 -319 l0 -446 q0 -100 8 -199 q-53 5 -106 0 q8 99 8 199 l0 291 q-42 -61 -93 -113 q-36 40 -84 66 q149 136 225 329 q38 103 44 212 q53 -16 115 -20 Z" /><glyph glyph-name="uni4F11" unicode="&#x4f11;" d="M681 -156 q-52 5 -104 0 q9 146 9 293 l0 205 q-126 -257 -292 -400 q-31 42 -76 70 q119 93 203.5 215.5 q84.5 122.5 118.5 270.5 l-136 0 q-38 0 -76 -7 q5 44 0 88 q38 -7 76 -7 l182 0 l0 156 q0 45 -9 90 q52 -6 104 0 q-8 -45 -8 -90 l0 -156 l113 0 q99 0 197 7 q-4 -44 0 -88 q-98 7 -197 7 l-63 0 q13 -147 73 -250 q62 -103 145 -180 q37 -34 81 -68 q-60 -14 -96 -62 q-183 149 -253 400 l0 -201 q0 -147 8 -293 ZM363 808 q-47 -169 -116 -319 l0 -446 q0 -100 8 -199 q-52 5 -105 0 q9 99 9 199 l0 291 q-42 -61 -93 -113 q-35 40 -83 66 q147 136 222 329 q38 103 44 212 q53 -16 114 -20 Z" /><glyph glyph-name="uni4F17" unicode="&#x4f17;" d="M593 250 l0 103 q0 45 -9 90 q52 -6 104 0 q-8 -45 -8 -90 l0 -96 q33 -88 106.5 -169 q73.5 -81 219.5 -167 q-57 -22 -86 -75 q-157 97 -259 275 q-29 -98 -97 -174.5 q-68 -76.5 -158 -117.5 q-15 51 -46 93 q101 29 167 117 q66 88 66 211 ZM241 258 q3 89 -9 165 q52 -5 104 0 q-11 -67 -8 -144 l6 5 q100 -90 183 -192 l-79 -45 q-55 67 -117 129 q-19 -114 -87.5 -205 q-68.5 -91 -168.5 -141 q-16 50 -49 91 q100 32 162.5 122 q62.5 90 62.5 215 ZM484 848 q29 -17 60 -30 l10 4 l6 -11 q15 -6 30 -11 l-13 -17 q99 -150 287 -238 q70 -34 143 -60 q-54 -27 -78 -79 q-133 52 -235 137 q-63 51 -103 98.5 q-40 47.5 -63 78.5 q-43 -54 -91 -104 q-109 -117 -216 -190 q-78 -54 -166 -94 q-23 45 -60 79 q227 94 372 254 q73 84 117 183 Z" /><glyph glyph-name="uni4F18" unicode="&#x4f18;" d="M785 615 q-57 64 -129 117 l63 60 q80 -59 143 -129 l-77 -48 ZM760 -149 q-56 0 -92.5 36.5 q-36.5 36.5 -36.5 96.5 l0 514 l-6 0 q-17 -320 -162 -508 q-68 -95 -152 -155 q-26 46 -67 80 q279 171 294 583 l-139 0 q-39 0 -77 -7 q5 44 0 88 q38 -7 77 -7 l139 0 l0 163 q0 46 -8 90 q52 -5 104 0 q-8 -44 -8 -90 l0 -163 l118 0 q92 0 182 7 q-4 -44 0 -88 q-90 7 -182 7 l-26 0 l0 -514 q0 -21 12 -36.5 q12 -15.5 31 -15.5 l141 0 q15 1 19 14 l31 189 q39 -24 84 -26 l-41 -225 q-3 -18 -14 -29 q-6 -4 -15 -4 l-206 0 ZM319 808 q-41 -169 -102 -319 l0 -446 q0 -100 7 -199 q-46 5 -92 0 q7 99 7 199 l0 291 q-36 -61 -81 -113 q-31 40 -73 66 q129 136 195 329 q33 103 38 212 q47 -16 101 -20 Z" /><glyph glyph-name="uni4F19" unicode="&#x4f19;" d="M561 441 l0 280 q0 45 -9 89 q52 -5 105 0 q-9 -44 -9 -89 l0 -202 l25 1 q1 -53 9 -106 q105 74 182 194 q36 -37 80 -66 l-155 -147 l-65 -58 q-15 22 -34 40 q33 -151 116.5 -258 q83.5 -107 214.5 -203 q-59 -16 -93 -66 q-208 162 -294 436 q-30 -155 -114.5 -271.5 q-84.5 -116.5 -205.5 -183.5 q-20 49 -55 89 q139 58 220.5 191.5 q81.5 133.5 81.5 329.5 ZM340 306 q47 130 59 265 l96 -6 q-13 -144 -64 -283 l-91 24 ZM371 808 q-48 -169 -119 -319 l0 -446 q0 -100 9 -199 q-54 5 -108 0 q9 99 9 199 l0 291 q-43 -61 -95 -113 q-36 40 -84 66 q150 136 227 329 q38 103 44 212 q54 -16 117 -20 Z" /><glyph glyph-name="uni4F1A" unicode="&#x4f1a;" d="M943 248 q-5 -44 0 -88 q-133 7 -267 7 l-242 0 q23 -19 49 -35 q-103 -89 -191 -193 l390 29 l27 5 q-54 54 -111 106 l71 54 q129 -117 242 -245 l-78 -47 l-56 62 l-89 -1 l-537 -49 l-6 74 q26 -3 42 12 l115 104 q21 20 48 55 q27 35 41 69 l-258 0 q-38 0 -76 -7 q5 44 0 88 q38 -7 76 -7 l543 0 q134 0 267 7 ZM732 433 q-5 -44 0 -88 q-70 7 -140 7 l-248 0 q-38 0 -76 -7 q5 44 0 88 q38 -7 76 -7 l248 0 q70 0 140 7 ZM484 846 q29 -18 60 -33 l10 5 l6 -12 q15 -7 30 -12 l-13 -19 q99 -165 287 -260 q70 -38 143 -67 q-54 -29 -78 -85 q-133 57 -235 149 q-63 56 -103 108 q-40 52 -63 86 q-43 -59 -91 -115 q-109 -127 -216 -208 q-78 -58 -166 -102 q-23 50 -60 87 q227 102 372 278 q73 92 117 200 Z" /><glyph glyph-name="uni4F1E" unicode="&#x4f1e;" d="M565 -156 q-52 5 -105 0 q9 105 9 210 l0 10 l-361 0 q-39 0 -76 -7 q4 44 0 88 q37 -7 76 -7 l361 0 l0 312 q0 46 -9 90 q52 -5 105 0 q-9 -44 -9 -90 l0 -312 l56 0 q72 102 117 278 q47 -22 97 -34 l-51 -110 l-66 -134 q133 0 267 7 q-5 -44 0 -88 q-142 7 -284 7 l-136 0 l0 -10 q0 -105 9 -210 ZM304 150 q-34 117 -85 229 l89 29 q54 -117 89 -240 l-93 -18 ZM484 846 q29 -17 60 -32 l10 5 l6 -12 q15 -6 30 -12 l-13 -18 q99 -161 287 -255 q70 -37 143 -65 q-54 -28 -78 -84 q-133 56 -235 147 q-63 54 -103 105 q-40 51 -63 84 q-43 -57 -91 -112 q-109 -125 -216 -204 q-78 -57 -166 -100 q-23 49 -60 85 q227 101 372 272 q73 90 117 196 Z" /><glyph glyph-name="uni4F1F" unicode="&#x4f1f;" d="M677 -156 q-53 5 -105 0 q9 148 9 297 l0 114 l-202 0 q-39 0 -77 -8 q5 45 0 89 q38 -8 77 -8 l202 0 l0 118 l-159 0 q-38 0 -76 -7 q5 44 0 88 q38 -7 76 -7 l159 0 l0 117 l-200 0 q-38 0 -76 -7 q5 44 0 88 q38 -7 76 -7 l200 0 q2 64 -9 122 q52 -6 105 0 q-11 -58 -9 -122 l112 0 q103 0 205 7 q-4 -44 0 -88 q-102 7 -205 7 l-112 0 l0 -117 l79 0 q86 0 173 7 q-5 -44 0 -88 q-87 7 -173 7 l-79 0 l0 -118 l288 0 l0 -279 q0 -71 -48 -94 q-43 -20 -105 -16 l-65 1 q4 50 -6 99 l91 -6 l31 -4 q15 0 15 15 l0 211 l-201 0 l0 -114 q0 -149 9 -297 ZM374 808 q-48 -169 -120 -319 l0 -446 q0 -100 9 -199 q-54 5 -109 0 q9 99 9 199 l0 291 q-43 -61 -95 -113 q-36 40 -85 66 q151 136 228 329 q39 103 45 212 q55 -16 118 -20 Z" /><glyph glyph-name="uni4F20" unicode="&#x4f20;" d="M388 378 q-38 0 -76 -7 q5 44 0 88 q38 -7 76 -7 l125 0 l47 133 q-87 4 -162 -7 q5 44 0 88 q38 -7 76 -7 l112 0 l29 83 q15 43 22 88 q47 -23 99 -35 q-35 -63 -58 -136 l109 0 q85 0 169 7 q-5 -44 0 -88 q-84 7 -169 7 l-135 0 l-47 -133 l189 0 q104 0 208 7 q-4 -44 0 -88 q-104 7 -208 7 l-215 0 l-39 -109 l371 0 l0 -74 q-27 -18 -49 -43 l-145 -164 q63 -45 116 -98 l-74 -51 q-126 127 -305 196 l40 73 q78 -30 149 -72 l141 159 l-362 0 l65 183 l-99 0 ZM374 808 q-49 -169 -120 -319 l0 -446 q0 -100 9 -199 q-55 5 -109 0 q9 99 9 199 l0 291 q-43 -61 -95 -113 q-36 40 -85 66 q151 136 228 329 q39 103 45 212 q54 -16 118 -20 Z" /><glyph glyph-name="uni4F24" unicode="&#x4f24;" d="M306 -77 q116 32 192 134.5 q76 102.5 72 257.5 l-117 0 q-39 0 -76 -7 q4 38 1 75 q-23 -24 -50 -49 q-33 42 -78 69 q91 74 159 174 q75 104 95 255 q54 -20 111 -28 q-31 -79 -62 -143 l292 0 q79 0 157 7 q-4 -44 0 -88 q-78 7 -157 7 l-329 0 q-62 -118 -128 -193 q32 -5 65 -5 l117 0 q4 93 -9 175 q52 -6 104 0 q-8 -45 -8 -90 l0 -85 l295 0 l0 -420 q0 -70 -38 -95 q-38 -25 -111 -22 l-63 1 q3 50 -6 99 q41 -5 59.5 -5 q18.5 0 28.5 -1 q10 -1 16.5 -1 q6.5 0 13.5 0 q13 1 13 16 l0 354 l-208 0 q4 -171 -85 -301 q-85 -126 -220 -185 q-15 51 -46 94 ZM360 808 q-47 -169 -116 -319 l0 -446 q0 -100 9 -199 q-52 5 -105 0 q9 99 9 199 l0 291 q-41 -61 -92 -113 q-35 40 -82 66 q146 136 220 329 q38 103 43 212 q53 -16 114 -20 Z" /><glyph glyph-name="uni4F2A" unicode="&#x4f2a;" d="M590 818 q57 -6 114 0 q0 -136 -25 -279 l281 0 l0 -563 q-1 -81 -43 -114 q-39 -23 -99 -18 q-24 2 -57 5 q-47 5 -88 4 q4 49 -9 97 q61 -6 89 -6 q28 0 44.5 -2 q16.5 -2 28 -3 q11.5 -1 23.5 0 q23 1 24 26 l0 500 l-209 0 q-19 -83 -46 -161 l70 43 q76 -86 134 -182 l-85 -36 q-53 87 -122 166 q-99 -283 -281 -456 q-34 41 -79 67 q164 146 245 334 q44 101 65 225 l-158 0 q-39 0 -76 -7 q4 44 0 88 q37 -7 76 -7 l169 0 q2 12 3 24 l-69 -21 q-41 94 -111 176 l78 47 q64 -75 106 -159 q7 89 7 212 ZM381 808 q-49 -169 -122 -319 l0 -446 q0 -100 9 -199 q-55 5 -111 0 q9 99 9 199 l0 291 q-43 -61 -97 -113 q-37 40 -87 66 q154 136 234 329 q39 103 45 212 q56 -16 120 -20 Z" /><glyph glyph-name="uni4F2F" unicode="&#x4f2f;" d="M521 629 q100 60 116 199 q49 -16 100 -21 q-32 -100 -95 -178 l305 0 l0 -775 l-86 0 l0 68 l-357 0 l0 -76 l-85 0 l0 784 q51 -1 102 -1 ZM861 311 l0 248 l-357 0 l0 -248 l357 0 ZM861 241 l-357 0 l0 -249 l357 0 l0 249 ZM384 808 q-49 -169 -123 -319 l0 -446 q0 -100 9 -199 q-56 5 -111 0 q9 99 9 199 l0 291 q-44 -61 -98 -113 q-37 40 -88 66 q156 136 235 329 q40 103 46 212 q56 -16 121 -20 Z" /><glyph glyph-name="uni4F30" unicode="&#x4f30;" d="M494 -154 l-86 0 l1 473 l205 -1 l0 211 l-199 0 q-36 0 -72 -7 q4 42 0 84 q36 -7 72 -7 l199 0 l0 135 q0 45 -9 89 q51 -6 103 0 q-9 -44 -9 -89 l0 -135 l105 0 q99 0 198 7 q-4 -42 0 -84 q-99 7 -198 7 l-105 0 l0 -211 l212 0 l0 -464 l-86 0 l0 61 l-331 0 l0 -69 ZM825 248 l-331 0 l0 -263 l331 0 l0 263 ZM357 808 q-46 -169 -114 -319 l0 -446 q0 -100 8 -199 q-52 5 -104 0 q9 99 9 199 l0 291 q-41 -61 -91 -113 q-35 40 -82 66 q145 136 219 329 q37 103 43 212 q52 -16 112 -20 Z" /><glyph glyph-name="uni4F34" unicode="&#x4f34;" d="M702 -156 q-51 5 -103 0 q9 147 9 295 l0 44 l-226 0 q-37 0 -73 -7 q5 42 0 84 q36 -7 73 -7 l226 0 l0 158 l-162 0 q-37 0 -72 -7 q4 42 0 84 q35 -7 72 -7 l162 0 l0 256 q0 44 -9 88 q52 -5 103 0 q-8 -44 -8 -88 l0 -256 l45 0 q-16 28 -39 51 q58 20 96.5 71 q38.5 51 48.5 116 q48 -20 98 -29 q-53 -132 -161 -209 q83 0 166 7 q-5 -42 0 -84 q-87 7 -173 7 l-81 0 l0 -158 l99 0 q105 0 209 7 q-4 -42 0 -84 q-104 7 -209 7 l-99 0 l0 -44 q0 -148 8 -295 ZM494 492 q-55 95 -127 183 l77 44 q76 -92 135 -193 l-85 -34 ZM376 808 q-48 -169 -121 -319 l0 -446 q0 -100 10 -199 q-55 5 -110 0 q9 99 9 199 l0 291 q-43 -61 -96 -113 q-36 40 -86 66 q153 136 231 329 q39 103 45 212 q55 -16 118 -20 Z" /><glyph glyph-name="uni4F36" unicode="&#x4f36;" d="M457 203 q-37 0 -73 -7 q5 42 0 84 q36 -7 73 -7 l437 0 l8 -77 q-31 -11 -53 -35 l-153 -178 l105 -90 l-69 -53 q-122 109 -259 207 l61 59 l95 -70 l143 167 l-315 0 ZM652 311 q-46 87 -108 166 l78 43 q67 -84 116 -177 l-86 -32 ZM571 821 q55 -14 112 -16 q-8 -33 -18 -65 q50 -103 135.5 -176 q85.5 -73 214.5 -139 q-54 -25 -79 -79 q-186 99 -305 299 q-52 -122 -134 -222 q-82 -100 -192 -160 q-22 47 -59 84 q131 63 219 176 q47 59 75 136 q28 77 31 162 ZM371 808 q-48 -169 -119 -319 l0 -446 q0 -100 9 -199 q-54 5 -108 0 q9 99 9 199 l0 291 q-43 -61 -95 -113 q-36 40 -84 66 q150 136 227 329 q38 103 44 212 q54 -16 117 -20 Z" /><glyph glyph-name="uni4F38" unicode="&#x4f38;" d="M722 -156 q-51 5 -102 0 q8 145 8 290 l0 20 l-147 0 q2 -31 5 -63 q-51 5 -102 0 q8 74 8 149 l0 378 l236 0 l0 101 q0 45 -8 89 q51 -6 102 0 q-8 -44 -8 -89 l0 -101 l251 0 l0 -510 l-86 0 l0 42 q-56 4 -114 4 l-51 0 l0 -20 q0 -145 8 -290 ZM714 224 l51 0 q58 0 114 5 l0 119 l-165 0 l0 -124 ZM628 224 l0 124 l-150 0 l0 -124 l150 0 ZM714 418 l165 0 l0 130 l-165 0 l0 -130 ZM628 418 l0 130 l-150 0 l0 -130 l150 0 ZM430 808 q-56 -169 -138 -319 l0 -446 q0 -100 10 -199 q-62 5 -125 0 q11 99 11 199 l0 291 q-50 -61 -110 -113 q-42 40 -98 66 q174 136 263 329 q44 103 51 212 q63 -16 136 -20 Z" /><glyph glyph-name="uni4F3C" unicode="&#x4f3c;" d="M791 382 l0 294 q0 46 -9 90 q52 -5 105 0 q-9 -44 -9 -90 l0 -294 q0 -112 -51 -219 q100 -123 183 -253 l-84 -38 q-68 106 -147 207 q-61 -89 -153 -155 q-92 -66 -204 -97 q-8 52 -34 98 q117 21 210 90 q93 69 143 165.5 q50 96.5 50 201.5 ZM626 400 q-57 137 -132 268 l87 34 q77 -135 136 -276 l-91 -26 ZM359 693 q52 -6 104 0 q-8 -45 -8 -90 l0 -492 l143 108 q26 23 49 48 l40 -70 q-25 -10 -46 -28 l-239 -209 l-52 61 q17 31 17 67 l0 515 q0 45 -8 90 ZM382 808 q-50 -169 -123 -319 l0 -446 q0 -100 9 -199 q-55 5 -111 0 q10 99 10 199 l0 291 q-44 -61 -98 -113 q-37 40 -87 66 q155 136 234 329 q39 103 45 212 q56 -16 121 -20 Z" /><glyph glyph-name="uni4F46" unicode="&#x4f46;" d="M1002 -17 q-4 -42 0 -84 q-104 7 -209 7 l-414 0 q-36 0 -72 -7 q4 42 0 84 q36 -7 72 -7 l414 0 q105 0 209 7 ZM494 111 l-86 0 l0 634 l504 0 l0 -634 l-86 0 l0 39 l-332 0 l0 -39 ZM826 482 l0 192 l-332 0 l0 -192 l332 0 ZM826 412 l-332 0 l0 -192 l332 0 l0 192 ZM373 808 q-48 -169 -119 -319 l0 -446 q0 -100 9 -199 q-55 5 -109 0 q9 99 9 199 l0 291 q-43 -61 -95 -113 q-36 40 -85 66 q151 136 228 329 q39 103 45 212 q54 -16 117 -20 Z" /><glyph glyph-name="uni4F4D" unicode="&#x4f4d;" d="M1002 -32 q-4 -42 0 -84 q-110 7 -220 7 l-437 0 q-36 0 -72 -7 q4 42 0 84 q36 -7 72 -7 l285 0 q-8 3 -16 5 q168 243 175 491 q54 -15 111 -17 l-57 -193 q-57 -185 -113 -286 l52 0 q110 0 220 7 ZM499 28 q-55 175 -128 346 l89 26 q74 -174 130 -352 l-91 -20 ZM944 576 q-4 -42 0 -84 q-93 7 -187 7 l-362 0 q-36 0 -72 -7 q4 42 0 84 q36 -7 72 -7 l362 0 q94 0 187 7 ZM629 584 q-54 100 -124 192 l80 42 q74 -97 130 -202 l-86 -32 ZM349 808 q-45 -169 -112 -319 l0 -446 q0 -100 8 -199 q-50 5 -101 0 q8 99 8 199 l0 291 q-40 -61 -89 -113 q-33 40 -79 66 q141 136 213 329 q36 103 42 212 q51 -16 110 -20 Z" /><glyph glyph-name="uni4F4E" unicode="&#x4f4e;" d="M677 -129 q-48 77 -112 145 l74 48 q69 -74 122 -157 l-84 -36 ZM965 468 q-5 -42 0 -84 q-84 7 -167 7 l-79 0 q23 -251 197 -403 q-2 82 -22 159 q61 -7 123 0 q-33 -119 -19 -242 q-4 -36 -35 -46 q-19 -6 -36 3 q-95 71 -169.5 176 q-74.5 105 -106.5 232 q-14 57 -19 121 l-176 0 l0 -358 l118 80 q22 18 42 39 l36 -67 q-21 -7 -39 -21 l-211 -175 l-49 61 q17 34 17 71 l0 702 l37 0 l0 1 q251 -10 450 110 q18 -48 45 -91 q-88 -38 -180 -63 l-7 -219 l83 0 q83 0 167 7 ZM456 639 l0 -178 l174 0 l-7 197 q-84 -16 -167 -19 ZM374 808 q-49 -169 -120 -319 l0 -446 q0 -100 9 -199 q-55 5 -109 0 q9 99 9 199 l0 291 q-43 -61 -95 -113 q-36 40 -85 66 q151 136 228 329 q39 103 45 212 q54 -16 118 -20 Z" /><glyph glyph-name="uni4F4F" unicode="&#x4f4f;" d="M1002 -34 q-4 -42 0 -84 q-103 7 -206 7 l-406 0 q-37 0 -73 -7 q5 42 0 84 q36 -7 73 -7 l200 0 l0 283 l-146 0 q-36 0 -72 -7 q4 42 0 84 q36 -7 72 -7 l146 0 l0 232 l-180 0 q-37 0 -73 -7 q5 42 0 85 q36 -7 73 -7 l213 0 q-61 86 -136 163 l73 50 q82 -84 148 -178 l-72 -35 l150 0 q97 0 194 7 q-5 -42 0 -85 q-97 7 -194 7 l-111 0 l0 -232 l92 0 q85 0 171 7 q-5 -42 0 -84 q-86 7 -171 7 l-92 0 l0 -283 l121 0 q103 0 206 7 ZM404 808 q-52 -169 -130 -319 l0 -446 q0 -100 10 -199 q-59 5 -117 0 q9 99 9 199 l0 291 q-46 -61 -103 -113 q-39 40 -92 66 q163 136 247 329 q42 103 48 212 q59 -16 128 -20 Z" /><glyph glyph-name="uni4F53" unicode="&#x4f53;" d="M670 -156 q-52 5 -103 0 q6 113 8 226 l-109 0 q-36 0 -72 -7 l2 43 q-42 -59 -89 -106 q-35 38 -80 63 q103 94 176.5 218 q73.5 124 94.5 273 l-126 0 q-36 0 -72 -7 q4 42 0 84 q36 -7 72 -7 l203 0 l0 120 q0 45 -8 89 q51 -6 103 0 q-9 -44 -9 -89 l0 -120 l106 0 q101 0 201 7 q-4 -42 0 -84 q-100 7 -201 7 l-63 0 q40 -270 317 -493 q-58 -12 -95 -60 q-48 41 -90 89 q0 -13 2 -27 q-86 8 -176 7 q1 -113 8 -226 ZM661 140 l43 0 q45 0 90 3 q-87 118 -133 266 l0 -269 ZM466 140 l109 0 l0 313 q-68 -181 -153 -310 q22 -3 44 -3 ZM333 808 q-43 -169 -107 -319 l0 -446 q0 -100 8 -199 q-48 5 -97 0 q8 99 8 199 l0 291 q-38 -61 -85 -113 q-32 40 -76 66 q135 136 204 329 q35 103 40 212 q49 -16 105 -20 Z" /><glyph glyph-name="uni4F55" unicode="&#x4f55;" d="M644 -49 q71 -9 116 -2 q11 2 16 7 q5 5 5 14 l0 691 l-358 0 q-37 0 -73 -7 q5 42 0 84 q36 -7 73 -7 l383 0 q98 0 196 7 q-4 -42 0 -84 q-68 5 -135 6 l0 -675 q5 -116 -81 -129 q-57 -7 -110 -2 l-26 0 q4 49 -6 97 ZM458 95 l-86 0 l0 439 l312 0 l0 -439 l-85 0 l0 81 l-141 0 l0 -81 ZM599 246 l0 218 l-141 0 l0 -218 l141 0 ZM372 808 q-48 -169 -119 -319 l0 -446 q0 -100 9 -199 q-54 5 -109 0 q9 99 9 199 l0 291 q-42 -61 -95 -113 q-35 40 -84 66 q150 136 227 329 q39 103 45 212 q54 -16 117 -20 Z" /><glyph glyph-name="uni4F59" unicode="&#x4f59;" d="M878 -106 q-119 130 -254 249 l69 54 q138 -122 260 -256 l-75 -47 ZM290 220 q39 -33 84 -57 q-142 -180 -318 -277 q-18 40 -49 72 q91 38 163 106 q72 68 120 156 ZM339 -49 q47 -5 68.5 -5 q21.5 0 33.5 -1.5 q12 -1.5 20 -1.5 q8 0 17 1 q16 1 16 19 l0 271 l-324 0 q-36 0 -72 -7 q5 42 0 84 q36 -7 72 -7 l324 0 l0 110 l-130 0 q-37 0 -73 -7 q5 42 0 84 q36 -7 73 -7 l246 0 q70 0 138 7 q-4 -42 0 -84 q-82 8 -168 7 l0 -110 l91 0 q124 0 247 7 q-5 -42 0 -84 q-123 7 -247 7 l-91 0 l0 -261 q1 -80 -46 -107 q-48 -22 -119 -14 l-70 2 q4 49 -6 97 ZM484 847 q29 -18 60 -32 l10 5 l6 -12 q15 -6 30 -11 l-13 -19 q99 -158 287 -250 q70 -35 143 -64 q-54 -27 -78 -82 q-133 55 -235 144 q-63 54 -103 103.5 q-40 49.5 -63 82.5 q-43 -56 -91 -110 q-109 -122 -216 -200 q-78 -56 -166 -98 q-23 47 -60 83 q227 99 372 267 q73 89 117 193 Z" /><glyph glyph-name="uni4F5B" unicode="&#x4f5b;" d="M774 -156 q-51 5 -103 0 q9 147 9 294 l0 94 l-88 0 q6 -154 -81 -263 q-82 -105 -206 -141 q-9 51 -35 96 q101 12 169 91 q74 84 68 217 l-171 0 l-1 256 l172 -1 l0 114 l-94 0 q-37 0 -73 -7 q5 42 0 84 q36 -7 73 -7 l94 0 q3 81 -9 152 q51 -6 103 0 q-12 -71 -9 -152 l88 0 q3 81 -9 152 q52 -6 103 0 q-12 -71 -8 -152 l173 0 l0 -254 q-86 0 -173 0 l0 -115 l232 0 l0 -230 q-1 -66 -46 -88 q-40 -20 -87 -18 l-73 1 q3 50 -6 98 l85 -6 l28 -5 q13 0 13 14 l0 164 l-146 0 l0 -94 q0 -147 8 -294 ZM680 302 l0 115 l-88 0 l0 -115 l88 0 ZM507 302 l0 115 l-86 0 l0 -115 l86 0 ZM853 601 l-87 0 l0 -114 q44 0 87 0 l0 114 ZM680 487 l0 114 l-88 0 l0 -114 l88 0 ZM338 808 q-44 -169 -109 -319 l0 -446 q0 -100 9 -199 q-50 5 -99 0 q9 99 9 199 l0 291 q-39 -61 -87 -113 q-32 40 -77 66 q137 136 207 329 q35 103 40 212 q50 -16 107 -20 Z" /><glyph glyph-name="uni4F5C" unicode="&#x4f5c;" d="M980 178 q-5 -42 0 -84 q-60 7 -120 7 l-228 0 l0 -27 q0 -115 8 -230 q-51 5 -103 0 q9 115 9 230 l0 496 l-20 0 q-83 -154 -193 -261 q-34 39 -79 65 q231 205 281 461 q52 -23 107 -35 q-40 -88 -78 -160 l283 0 q78 0 155 7 q-4 -42 0 -84 q-77 7 -155 7 l-215 0 l0 -167 l211 0 q56 0 112 7 q-4 -42 0 -84 q-56 7 -112 7 l-211 0 l0 -162 l228 0 q60 0 120 7 ZM381 803 q-52 -149 -128 -280 l0 -467 q0 -106 8 -212 q-51 5 -103 0 q9 106 9 212 l0 341 q-49 -60 -107 -108 q-30 45 -72 77 q141 101 221 259 q49 98 62 207 q51 -19 110 -29 Z" /><glyph glyph-name="uni4F60" unicode="&#x4f60;" d="M925 27 q-82 152 -181 296 l81 39 q102 -147 186 -302 l-86 -33 ZM457 358 q50 -11 101 -11 q-40 -215 -189 -356 q-28 35 -66 58 q72 52 111.5 134.5 q39.5 82.5 42.5 174.5 ZM487 -49 q43 -5 62 -5 q19 0 30.5 -0.5 q11.5 -0.5 18 -0.5 q6.5 0 13.5 2 q14 2 15 17 l0 442 q0 45 -9 89 q51 -6 103 0 q-9 -44 -9 -89 l0 -431 q0 -75 -36.5 -101 q-36.5 -26 -116.5 -22 l-65 2 q4 49 -6 97 ZM563 634 l415 0 l8 -78 q-17 6 -26 -3 l-80 -92 l-65 57 l40 46 l-325 0 q-65 -134 -136 -225 q-39 34 -88 52 q188 220 229 444 q52 -23 108 -35 l-80 -166 ZM364 808 q-47 -169 -117 -319 l0 -446 q0 -100 9 -199 q-53 5 -106 0 q9 99 9 199 l0 291 q-42 -61 -93 -113 q-35 40 -83 66 q147 136 223 329 q37 103 43 212 q53 -16 115 -20 Z" /><glyph glyph-name="uni4F63" unicode="&#x4f63;" d="M704 -156 q-52 5 -103 0 q9 132 9 264 l0 138 l-184 0 q4 -261 -147 -408 q-30 43 -72 73 q140 91 133 324 l-2 517 l606 0 l-1 -792 q-1 -67 -48 -92 q-49 -19 -123 -14 l-22 0 q3 51 -6 102 q51 -9 65 -9 q49 0 49 24 l0 275 l-163 0 l0 -138 q0 -132 9 -264 ZM695 316 l163 0 l0 134 l-163 0 l0 -134 ZM610 316 l0 134 l-185 0 l1 -134 l184 0 ZM695 520 l163 0 l0 162 l-163 0 l0 -162 ZM610 520 l0 162 l-186 0 l1 -162 l185 0 ZM311 808 q-40 -169 -100 -319 l0 -446 q0 -100 8 -199 q-45 5 -91 0 q8 99 8 199 l0 291 q-36 -61 -80 -113 q-30 40 -70 66 q125 136 190 329 q32 103 37 212 q46 -16 98 -20 Z" /><glyph glyph-name="uni4F69" unicode="&#x4f69;" d="M608 75 q15 -5 32 -8 q15 0 15 10 l0 316 l-52 0 l0 -324 q0 -113 8 -225 q-50 5 -101 0 q9 112 9 225 l0 324 l-39 0 l0 -276 q0 -68 9 -136 q-51 5 -101 0 q8 67 8 135 l0 344 l123 0 l0 74 q-63 -7 -120 -6 q4 42 -7 83 q171 -11 323 65 q13 -49 36 -93 q-76 -23 -148 -36 l0 -87 l136 0 l0 -376 q0 -60 -33 -85 q-35 -28 -94 -25 q2 50 -4 101 ZM288 767 l575 0 l-9 -330 l0 -159 q1 -75 12 -141 q16 -67 48 -123 q-1 86 -9 170 q50 -6 100 0 q-14 -139 -8 -279 q0 -18 -12 -30 q-16 -17 -38 -11 q-13 -2 -25 3 q-68 71 -110.5 165.5 q-42.5 94.5 -40.5 195.5 l8 209 l0 263 l-406 0 l0 -390 q1 -275 -112 -462 q-39 33 -87 51 q100 112 112 302 q3 45 3 109 l-1 457 ZM269 808 q-34 -169 -86 -319 l0 -446 q0 -100 6 -199 q-39 5 -78 0 q7 99 7 199 l0 291 q-31 -61 -69 -113 q-26 40 -62 66 q109 136 165 329 q28 103 32 212 q40 -16 85 -20 Z" /><glyph glyph-name="uni4F73" unicode="&#x4f73;" d="M1002 -37 q-4 -40 0 -80 q-102 6 -204 6 l-404 0 q-35 0 -69 -6 q4 40 0 80 q34 -7 69 -7 l220 0 l0 186 l-163 0 q-35 0 -69 -6 q4 40 0 80 q34 -7 69 -7 l163 0 l0 162 l-198 0 q-35 0 -69 -7 q5 40 0 80 q34 -6 69 -6 l199 0 l0 149 l-164 0 q-35 0 -69 -6 q4 40 0 80 q34 -7 69 -7 l164 0 q4 93 -8 174 q50 -6 101 0 q-13 -81 -9 -174 l81 0 q87 0 172 7 q-4 -40 0 -80 q-85 6 -172 6 l-81 0 l0 -149 l95 0 q97 0 193 6 q-4 -40 0 -80 q-96 7 -193 7 l-96 0 l0 -162 l84 0 q87 0 173 7 q-4 -40 0 -80 q-86 6 -173 6 l-84 0 l0 -186 l100 0 q102 0 204 7 ZM365 808 q-47 -169 -117 -319 l0 -446 q0 -100 9 -199 q-53 5 -106 0 q8 99 8 199 l0 291 q-42 -61 -93 -113 q-35 40 -83 66 q148 136 223 329 q38 103 44 212 q53 -16 115 -20 Z" /><glyph glyph-name="uni4F7F" unicode="&#x4f7f;" d="M981 688 q-5 -44 0 -88 q-98 7 -196 7 l-103 0 l0 -80 l246 0 l-2 -289 l-250 0 q-14 -89 -57 -168 q76 -60 175.5 -94.5 q99.5 -34.5 203.5 -34.5 q-39 -46 -40 -107 q-111 7 -210 47 q-105 43 -179 114 q-96 -119 -238 -167 q-11 51 -39 96 q133 28 218 136 q-44 54 -80 115 l68 38 q21 -43 56 -82 q24 50 34 107 l-224 0 l0 289 l230 0 l0 80 l-188 0 q-38 0 -76 -7 q5 44 0 88 q38 -7 76 -7 l188 0 q3 74 -8 139 q52 -5 104 0 q-11 -65 -8 -139 l103 0 q98 0 196 7 ZM682 454 l0 -142 l158 0 l0 142 l-158 0 ZM594 454 l-143 0 l0 -142 l143 0 l0 142 ZM357 808 q-46 -169 -115 -319 l0 -446 q0 -100 9 -199 q-52 5 -104 0 q9 99 9 199 l0 291 q-41 -61 -91 -113 q-35 40 -82 66 q145 136 219 329 q36 103 42 212 q52 -16 113 -20 Z" /><glyph glyph-name="uni4F84" unicode="&#x4f84;" d="M1002 -34 q-4 -40 0 -81 q-110 7 -220 7 l-441 0 q-35 0 -69 -7 q4 40 0 81 q34 -7 69 -7 l236 0 l0 193 l-161 0 q-35 0 -70 -7 q5 40 0 80 q35 -6 70 -6 l161 0 l0 177 l-244 -28 l-8 67 q24 1 41 18 q74 72 118 132 q44 60 58 128 l-122 0 q-34 0 -69 -7 q5 40 0 80 q35 -6 69 -6 l365 0 q94 0 187 6 q-4 -40 0 -80 q-93 7 -187 7 l-155 0 q-78 -139 -176 -265 l298 29 l15 3 q-38 59 -79 117 l79 39 q91 -125 164 -258 l-85 -32 l-41 72 l-47 -1 l-96 -11 l0 -187 l82 0 q86 0 171 6 q-4 -40 0 -80 q-85 7 -171 7 l-82 0 l0 -193 l120 0 q110 0 220 7 ZM353 808 q-46 -169 -114 -319 l0 -446 q0 -100 9 -199 q-51 5 -103 0 q9 99 9 199 l0 291 q-41 -61 -90 -113 q-34 40 -80 66 q142 136 215 329 q37 103 42 212 q52 -16 112 -20 Z" /><glyph glyph-name="uni4F8B" unicode="&#x4f8b;" d="M814 -54 q57 0 57 27 l0 748 q0 44 -8 87 q50 -6 101 0 q-8 -43 -8 -87 l-1 -767 q-4 -58 -42 -84 q-44 -22 -106 -16 l-58 0 q4 49 -6 96 q41 -4 71 -4 ZM811 85 q-51 6 -101 0 q8 82 8 163 l0 289 q0 44 -8 87 q50 -5 101 0 q-8 -43 -8 -87 l0 -289 q0 -81 8 -163 ZM228 -97 q178 90 272 268 q-49 84 -116 159 q-37 -78 -85 -144 q-40 33 -88 50 q173 210 187 448 q-41 0 -79 -7 q4 40 0 80 q34 -7 69 -7 l192 0 q57 0 113 7 q-4 -40 0 -80 q-91 9 -190 7 q-21 -83 -42 -153 l180 0 q19 -203 -62 -388 q-81 -185 -239 -309 q-50 44 -112 69 ZM540 273 q27 92 24 191 l-126 0 l-17 -48 q66 -67 119 -143 ZM319 808 q-41 -169 -103 -319 l0 -446 q0 -100 8 -199 q-46 5 -92 0 q7 99 7 199 l0 291 q-37 -61 -81 -113 q-31 40 -73 66 q129 136 195 329 q33 103 38 212 q47 -16 101 -20 Z" /><glyph glyph-name="uni4F8D" unicode="&#x4f8d;" d="M500 9 q-50 99 -118 190 l79 41 q71 -97 124 -200 l-85 -31 ZM614 -50 q70 -9 110 -3 q12 2 12 16 l0 281 l-311 0 q-35 0 -70 -7 q5 40 0 80 q35 -6 70 -6 l311 0 l0 120 l-329 0 q-35 0 -69 -6 q4 40 0 80 q34 -7 69 -7 l183 0 l0 123 l-163 0 q-35 0 -69 -6 q4 40 0 80 q34 -7 69 -7 l163 0 q3 75 -9 140 q51 -6 101 0 q-11 -65 -8 -140 l94 0 q89 0 177 7 q-4 -40 0 -80 q-88 6 -177 6 l-94 0 l0 -123 l128 0 q100 0 200 7 q-4 -40 0 -80 q-91 6 -181 6 l0 -120 q89 0 179 6 q-5 -40 0 -80 q-90 6 -179 7 l0 -271 q4 -92 -68 -113 q-54 -10 -110 -6 l-23 0 q3 49 -6 96 ZM361 808 q-47 -169 -116 -319 l0 -446 q0 -100 9 -199 q-53 5 -105 0 q8 99 8 199 l0 291 q-41 -61 -92 -113 q-34 40 -82 66 q146 136 221 329 q37 103 43 212 q53 -16 114 -20 Z" /><glyph glyph-name="uni4F9B" unicode="&#x4f9b;" d="M928 -143 q-96 142 -244 248 l60 59 q161 -115 265 -269 l-81 -38 ZM510 163 q42 -28 89 -47 q-116 -183 -285 -285 q-19 39 -51 69 q109 49 186 155 q36 50 61 108 ZM1000 273 q-4 -40 0 -80 q-108 7 -216 7 l-433 0 q-35 0 -69 -7 q4 40 0 80 q34 -6 69 -6 l123 0 l0 263 q-73 3 -136 -7 q5 40 0 80 q63 -9 136 -6 l0 134 q0 43 -8 87 q50 -6 101 0 q-9 -44 -9 -87 l0 -134 l163 0 l0 134 q0 43 -8 87 q50 -6 101 0 q-9 -44 -9 -87 l0 -134 q84 1 168 6 q-4 -40 0 -80 q-84 6 -168 7 l0 -263 q98 0 195 6 ZM721 267 l0 263 l-163 0 l0 -263 l163 0 ZM347 808 q-45 -169 -112 -319 l0 -446 q0 -100 9 -199 q-51 5 -101 0 q8 99 8 199 l0 291 q-40 -61 -88 -113 q-34 40 -79 66 q140 136 212 329 q36 103 41 212 q51 -16 110 -20 Z" /><glyph glyph-name="uni4F9D" unicode="&#x4f9d;" d="M407 -52 l0 312 q-53 -59 -115 -106 q-28 43 -69 74 q101 68 179 163 q78 95 111 215 l-158 0 q-35 0 -69 -7 q4 40 0 80 q34 -6 69 -6 l212 0 l-85 123 l80 38 l94 -136 l-53 -25 l158 0 q102 0 205 6 q-5 -40 0 -80 q-103 7 -205 7 l-138 0 l-22 -46 q25 -137 90 -262 q108 70 153 196 q42 -28 89 -46 q-99 -147 -201 -222 q105 -166 288 -314 q-57 -12 -93 -58 q-274 228 -379 606 q-28 -49 -57 -91 l0 -381 l97 72 q20 19 37 39 l38 -61 q-19 -8 -34 -22 l-188 -178 l-51 56 q17 24 17 54 ZM325 808 q-42 -169 -104 -319 l0 -446 q0 -100 7 -199 q-47 5 -94 0 q8 99 8 199 l0 291 q-38 -61 -83 -113 q-31 40 -74 66 q131 136 199 329 q33 103 38 212 q48 -16 103 -20 Z" /><glyph glyph-name="uni4FA6" unicode="&#x4fa6;" d="M901 -152 q-111 105 -235 198 l62 57 q128 -96 242 -204 l-69 -51 ZM590 183 l0 137 q0 43 -8 86 q50 -5 101 0 q-8 -43 -8 -86 l0 -137 q0 -114 -91.5 -217 q-91.5 -103 -233.5 -138 q-6 51 -29 97 q113 11 191 88 q78 77 78 170 ZM390 197 l-2 338 l207 -1 l0 204 q0 44 -8 87 q50 -5 101 0 q-10 -53 -8 -112 l211 0 q56 0 111 6 q-4 -40 0 -80 q-55 7 -111 7 l-211 0 l0 -112 l233 0 l0 -440 l-84 0 l0 373 l-356 0 l1 -270 q0 -66 9 -132 q-51 5 -101 -1 q8 66 8 133 ZM386 808 q-50 -169 -124 -319 l0 -446 q0 -100 9 -199 q-56 5 -112 0 q9 99 9 199 l0 291 q-44 -61 -98 -113 q-37 40 -88 66 q156 136 236 329 q40 103 46 212 q57 -16 122 -20 Z" /><glyph glyph-name="uni4FA7" unicode="&#x4fa7;" d="M863 808 q51 -6 101 0 q-8 -43 -8 -87 l-1 -773 q-3 -33 -14 -47 q-13 -21 -39 -32 q-45 -20 -115 -15 q3 51 -5 101 q46 -8 57 -8 q11 0 22 7 q11 7 11 19 l0 748 q0 44 -9 87 ZM837 104 q-51 6 -101 0 q8 83 8 167 l0 297 q0 44 -8 87 q50 -5 101 0 q-8 -43 -8 -87 l0 -297 q0 -84 8 -167 ZM443 200 l0 278 q0 43 -9 86 q51 -5 101 0 q-8 -43 -8 -86 l0 -278 q0 -44 -9 -86 l15 11 q100 -99 184 -208 l-77 -42 q-68 87 -146 167 q-67 -149 -218 -212 q-12 49 -41 92 q91 19 149.5 94.5 q58.5 75.5 58.5 183.5 ZM324 738 l353 1 l0 -585 l-85 0 l0 518 l-183 0 l1 -387 q1 -92 9 -183 q-50 5 -101 0 q8 91 8 183 l-2 453 ZM329 808 q-42 -169 -106 -319 l0 -446 q0 -100 8 -199 q-48 5 -95 0 q8 99 8 199 l0 291 q-38 -61 -84 -113 q-32 40 -75 66 q133 136 201 329 q34 103 39 212 q48 -16 104 -20 Z" /><glyph glyph-name="uni4FA8" unicode="&#x4fa8;" d="M811 -156 q-50 5 -100 0 q8 74 8 148 l0 255 q0 43 -8 86 q42 -4 80 -1 q-66 71 -107 158 l26 11 l-108 0 q-47 -95 -107 -168 q29 -1 64 3 q-8 -43 -8 -87 l0 -154 q0 -90 -57.5 -163 q-57.5 -73 -141.5 -103 q-9 50 -36 94 q63 7 107 55.5 q44 48.5 44 116.5 l0 154 q0 25 -3 49 q-66 -70 -149 -117 q-23 45 -60 81 q74 38 141.5 99 q67.5 61 111.5 140 l-123 0 q-35 0 -69 -6 q4 40 0 80 q34 -7 69 -7 l155 0 q17 47 25 97 q-90 -17 -179 -24 q0 42 -15 83 q289 15 493 126 q15 -53 41 -103 l-230 -58 q-18 -62 -43 -121 l154 0 q101 0 202 7 q-4 -40 0 -80 q-101 6 -202 6 l-24 0 q33 -70 90 -113 q39 -30 82 -49 l78 -37 q-51 -28 -72 -83 q-69 33 -132 96 q-5 -34 -5 -68 l0 -255 q0 -74 8 -148 ZM378 808 q-48 -169 -121 -319 l0 -446 q0 -100 9 -199 q-55 5 -110 0 q9 99 9 199 l0 291 q-43 -61 -96 -113 q-37 40 -87 66 q153 136 232 329 q39 103 45 212 q55 -16 119 -20 Z" /><glyph glyph-name="uni4FAE" unicode="&#x4fae;" d="M630 67 q-44 75 -103 143 l73 45 q64 -73 112 -154 l-82 -34 ZM995 332 q-4 -38 0 -76 q-62 3 -124 5 l0 -202 l129 0 l0 -64 l-129 0 q3 -73 -22 -108 q-31 -35 -89 -37 l-101 5 l-29 0 q4 48 -7 94 q49 -5 71.5 -5 q22.5 0 36 -1 q13.5 -1 22 -1 q8.5 0 17.5 1 q17 2 18 21 l0 31 l-447 0 l37 267 q-56 2 -105 -6 q5 38 0 76 q53 -9 114 -6 l29 209 q-61 -96 -125 -169 q-36 35 -82 56 q199 205 275 420 q46 -30 98 -49 l-58 -89 l295 0 q81 0 161 7 q-4 -39 0 -77 q-80 6 -161 6 l-336 0 l-46 -73 q40 -5 85 -3 l349 0 l0 -237 q62 2 124 5 ZM495 500 l-24 -174 l317 0 l0 174 l-142 0 l99 -123 l-76 -42 l-105 130 l63 35 l-132 0 ZM788 59 l0 203 l-326 0 l-28 -203 l354 0 ZM342 808 q-44 -169 -110 -319 l0 -446 q0 -100 9 -199 q-50 5 -100 0 q8 99 8 199 l0 291 q-39 -61 -87 -113 q-33 40 -78 66 q138 136 209 329 q36 103 41 212 q50 -16 108 -20 Z" /><glyph glyph-name="uni4FB5" unicode="&#x4fb5;" d="M402 222 q4 38 0 76 q33 -6 66 -6 l397 0 q-59 -137 -160 -248 q116 -81 265 -111 q-45 -36 -57 -93 q-155 39 -273 141 q-115 -102 -258 -160 q-34 56 -86 97 q158 23 284 122 q-72 81 -124 188 q-27 -1 -54 -6 ZM357 267 l-83 0 l0 153 l715 0 l0 -153 l-82 0 l0 89 l-550 0 l0 -89 ZM395 704 q4 38 0 76 q32 -6 66 -6 l422 0 l0 -303 l-427 0 q-33 0 -66 -6 q4 38 0 77 q33 -7 66 -7 l344 0 l0 55 l-325 0 q-33 0 -66 -7 q4 39 0 77 q33 -6 66 -6 l325 0 l0 56 l-339 0 q-34 0 -66 -6 ZM538 228 q38 -73 103 -133 q58 60 97 133 l-200 0 ZM385 808 q-49 -169 -123 -319 l0 -446 q0 -100 9 -199 q-56 5 -112 0 q9 99 9 199 l0 291 q-44 -61 -98 -113 q-37 40 -88 66 q156 136 236 329 q40 103 46 212 q56 -16 121 -20 Z" /><glyph glyph-name="uni4FBF" unicode="&#x4fbf;" d="M966 768 q-5 -42 0 -84 q-96 7 -192 7 l-89 0 l0 -82 l249 0 l-2 -376 l-249 0 q-8 -94 -62 -179 q167 -99 380 -116 q-42 -42 -47 -102 q-213 25 -385 150 q-103 -115 -270 -159 q-7 52 -30 98 q137 15 234 115 q-55 49 -109 111 l59 49 q41 -54 98 -98 q39 62 46 131 l-245 0 l0 376 l247 0 l0 82 l-196 0 q-36 0 -72 -7 q4 42 0 84 q36 -7 72 -7 l371 0 q96 0 192 7 ZM685 455 l162 0 l1 84 l-163 0 l0 -84 ZM599 455 l0 84 l-161 0 l0 -84 l161 0 ZM685 385 l0 -82 l161 0 l1 82 l-162 0 ZM599 385 l-161 0 l0 -82 l161 0 l0 82 ZM330 808 q-42 -169 -106 -319 l0 -446 q0 -100 8 -199 q-48 5 -96 0 q8 99 8 199 l0 291 q-38 -61 -84 -113 q-32 40 -75 66 q133 136 202 329 q34 103 39 212 q48 -16 104 -20 Z" /><glyph glyph-name="uni4FC3" unicode="&#x4fc3;" d="M246 -83 q129 53 141 225 q4 85 -8 159 q51 -5 103 0 q-12 -70 -9 -151 q26 -107 122 -158 l0 429 l-189 0 l0 353 l464 0 l-2 -353 l-188 0 l0 -163 l160 0 q45 0 89 7 q-5 -42 0 -84 q-44 7 -89 7 l-160 0 l0 -227 q55 -12 119 -13.5 q64 -1.5 186 -1.5 q-38 -45 -39 -103 l-172 11 q-227 13 -329 157 q-43 -111 -140 -178 q-22 47 -59 84 ZM492 704 l0 -213 l291 0 l1 213 l-292 0 ZM379 808 q-49 -169 -122 -319 l0 -446 q0 -100 10 -199 q-56 5 -111 0 q10 99 10 199 l0 291 q-44 -61 -97 -113 q-37 40 -87 66 q154 136 232 329 q40 103 46 212 q55 -16 119 -20 Z" /><glyph glyph-name="uni4FCA" unicode="&#x4fca;" d="M954 -162 q-204 33 -322 164 q-149 -140 -348 -185 q-26 60 -71 107 q104 1 198.5 38.5 q94.5 37.5 168.5 104.5 q-48 73 -74 158 q-94 -96 -216 -146 q-13 40 -39 74 q101 29 175.5 106.5 q74.5 77.5 111.5 175.5 q42 -25 89 -41 q-14 -29 -32 -56 l244 0 q-45 -151 -146 -271 q61 -56 140.5 -90 q79.5 -34 166.5 -41 q-41 -40 -46 -98 ZM895 315 q-112 106 -238 202 l61 56 q130 -98 245 -208 l-68 -50 ZM482 567 q36 -34 78 -60 q-124 -139 -261 -230 q-20 38 -52 66 q132 65 235 224 ZM567 848 q35 -35 77 -62 q-80 -66 -146 -144 l245 15 l-67 65 l68 51 q52 -49 101 -101 l15 3 l-2 -16 q45 -48 86 -97 l-74 -44 q-36 42 -73 82 l-24 1 l-406 -33 l-4 64 q21 -4 34.5 8.5 q13.5 12.5 39 35 q25.5 22.5 41.5 37.5 q16 15 36 38 q37 40 53 97 ZM568 274 q18 -79 70 -147 q55 67 86 147 l-156 0 ZM372 808 q-48 -169 -120 -319 l0 -446 q0 -100 9 -199 q-54 5 -108 0 q9 99 9 199 l0 291 q-43 -61 -95 -113 q-36 40 -84 66 q150 136 227 329 q39 103 45 212 q54 -16 117 -20 Z" /><glyph glyph-name="uni4FD7" unicode="&#x4fd7;" d="M424 -100 l0 328 q-52 -38 -108 -63 q-18 49 -51 89 q122 46 207 137 q88 90 111 241 q53 -20 110 -28 q-11 -26 -22 -52 q43 -103 128.5 -177.5 q85.5 -74.5 214.5 -131.5 q-53 -28 -76 -83 q-43 21 -82 47 l-1 -307 l-431 0 ZM855 533 q-84 113 -183 216 l73 49 q103 -107 190 -223 l-80 -42 ZM502 807 q49 -14 100 -18 q-64 -229 -250 -339 q-19 40 -50 71 q82 35 136.5 112 q54.5 77 63.5 174 ZM510 196 l0 -226 l259 0 l2 226 l-261 0 ZM782 266 q-92 84 -153 201 q-68 -120 -158 -201 l311 0 ZM372 808 q-48 -169 -119 -319 l0 -446 q0 -100 9 -199 q-54 5 -109 0 q9 99 9 199 l0 291 q-42 -61 -95 -113 q-35 40 -84 66 q150 136 227 329 q39 103 45 212 q54 -16 117 -20 Z" /><glyph glyph-name="uni4FD8" unicode="&#x4fd8;" d="M1002 248 q-4 -40 0 -80 q-110 7 -221 7 l-90 0 l0 -211 q1 -74 -48 -97 q-44 -20 -110 -14 q0 0 -67 1 q4 49 -6 96 q45 -5 65.5 -5 q20.5 0 31.5 -1.5 q11 -1.5 18.5 -2.5 q7.5 -1 15.5 0 q16 0 16 16 l0 218 l-270 0 q-34 0 -69 -7 q5 40 0 80 q35 -6 69 -6 l270 0 l0 75 l111 78 l-296 0 q-35 0 -69 -6 q4 40 0 80 q34 -7 69 -7 l286 0 q-17 13 -36 23 q95 79 168 225 q39 -31 84 -53 l-134 -167 l-25 -28 l107 0 l8 -76 q-30 -1 -55 -19 l-134 -94 l0 -31 l90 0 q111 0 221 6 ZM599 500 q-27 82 -71 159 l51 21 q-83 -10 -155 -12 q46 -84 82 -173 l-88 -24 q-43 108 -104 210 l26 11 q1 31 -6 61 q297 -21 528 93 q13 -54 38 -105 q-154 -38 -284 -56 q44 -80 73 -164 l-90 -21 ZM328 808 q-43 -169 -106 -319 l0 -446 q0 -100 8 -199 q-47 5 -95 0 q8 99 8 199 l0 291 q-38 -61 -84 -113 q-31 40 -74 66 q132 136 200 329 q34 103 39 212 q48 -16 104 -20 Z" /><glyph glyph-name="uni4FDD" unicode="&#x4fdd;" d="M666 -156 q-50 5 -100 0 q9 99 9 198 l0 162 q-97 -204 -274 -327 q-22 37 -55 65 q96 54 162 142.5 q66 88.5 98 193.5 l-146 0 q-34 0 -67 -6 q5 38 0 77 q33 -7 67 -7 l215 0 l0 125 l-102 0 l0 -45 l-83 0 l0 363 l470 0 l0 -363 l-83 0 l0 45 l-119 0 l0 -125 l112 0 q103 0 206 7 q-5 -39 0 -77 q-103 6 -206 6 l-64 0 q44 -100 119 -177 q75 -77 193 -158 q-55 -17 -87 -66 q-169 121 -273 333 l0 -168 q0 -99 8 -198 ZM777 721 l-304 0 l0 -189 l304 0 l0 189 ZM354 808 q-45 -169 -113 -319 l0 -446 q0 -100 8 -199 q-51 5 -103 0 q9 99 9 199 l0 291 q-41 -61 -91 -113 q-34 40 -80 66 q143 136 216 329 q37 103 43 212 q51 -16 111 -20 Z" /><glyph glyph-name="uni4FE1" unicode="&#x4fe1;" d="M485 -154 l-82 0 l0 363 l505 -1 l0 -347 l-83 0 l0 58 l-340 0 l0 -73 ZM928 369 q-4 -38 0 -77 q-79 7 -158 7 l-298 0 q-33 0 -66 -7 q4 39 0 77 q33 -6 66 -6 l298 0 q79 0 158 6 ZM933 516 q-4 -38 0 -76 q-80 6 -161 6 l-305 0 q-33 0 -66 -6 q4 38 0 76 q33 -6 66 -6 l305 0 q81 0 161 6 ZM1002 671 q-4 -38 0 -77 q-98 7 -196 7 l-388 0 q-33 0 -66 -7 q4 39 0 77 q33 -6 66 -6 l238 0 q-50 72 -114 135 l70 49 q72 -71 128 -153 l-67 -31 l133 0 q98 0 196 6 ZM825 144 l-339 0 l-1 -161 l340 0 l0 161 ZM361 808 q-47 -169 -116 -319 l0 -446 q0 -100 9 -199 q-53 5 -105 0 q9 99 9 199 l0 291 q-42 -61 -93 -113 q-34 40 -82 66 q146 136 221 329 q37 103 43 212 q53 -16 114 -20 Z" /><glyph glyph-name="uni4FE9" unicode="&#x4fe9;" d="M479 543 l-8 153 l-91 0 q-33 0 -66 -6 q4 38 0 76 q33 -6 66 -6 l393 0 q99 0 197 6 q-4 -38 0 -76 q-98 6 -197 6 l-9 0 q0 -87 -3 -153 l178 0 l0 -585 q2 -71 -33 -98 q-37 -25 -105 -24 l-58 1 q4 50 -6 100 q60 -14 96 -9 q8 0 15.5 4.5 q7.5 4.5 7.5 13.5 l0 219 l-84 -30 q-24 48 -54 94 q-31 -105 -89 -185 q-39 32 -87 49 q39 48 66 98 l-46 -19 l-37 61 q-34 -101 -94 -176 q-19 17 -40 30 l0 -41 q0 -101 8 -202 q-50 5 -99 0 q8 101 8 202 l0 497 l171 0 ZM856 479 l-98 0 q-6 -79 -16 -142 l4 2 q63 -83 110 -173 l0 313 ZM627 234 q43 103 41 245 l-97 0 q-7 -77 -19 -139 l9 3 l66 -109 ZM665 543 l-9 153 l-77 0 q0 -86 -4 -153 l90 0 ZM391 479 l0 -314 q90 120 90 314 l-90 0 ZM308 808 q-40 -169 -99 -319 l0 -446 q0 -100 8 -199 q-45 5 -90 0 q8 99 8 199 l0 291 q-36 -61 -79 -113 q-30 40 -70 66 q124 136 188 329 q32 103 37 212 q45 -16 97 -20 Z" /><glyph glyph-name="uni4FED" unicode="&#x4fed;" d="M976 -38 q-5 -38 0 -76 q-100 6 -199 6 l-395 0 q-33 0 -66 -6 q4 38 0 76 q33 -6 66 -6 l311 0 q-16 11 -33 19 q76 71 115 168.5 q39 97.5 43 200.5 q48 -11 98 -11 q-37 -214 -163 -377 l24 0 q99 0 199 6 ZM612 68 q-33 146 -83 288 l87 22 q52 -146 86 -296 l-90 -14 ZM451 47 q-50 139 -118 272 l84 29 q70 -136 122 -279 l-88 -22 ZM801 461 q-4 -39 0 -77 q-54 6 -108 6 l-184 0 q-33 0 -66 -6 q4 38 0 77 q33 -7 66 -7 l184 0 q54 0 108 7 ZM584 842 q47 -30 98 -49 l-19 -29 q51 -101 137.5 -174 q86.5 -73 213.5 -136 q-53 -25 -77 -77 q-197 103 -320 320 q-157 -218 -320 -314 q-23 45 -60 80 q120 61 211.5 156.5 q91.5 95.5 135.5 222.5 ZM366 808 q-47 -169 -117 -319 l0 -446 q0 -100 9 -199 q-54 5 -107 0 q9 99 9 199 l0 291 q-42 -61 -94 -113 q-35 40 -83 66 q148 136 224 329 q38 103 44 212 q53 -16 115 -20 Z" /><glyph glyph-name="uni4FEE" unicode="&#x4fee;" d="M391 -76 q326 40 492 260 q35 -42 79 -76 q-138 -116 -285 -194 q-118 -63 -260 -86 q-5 51 -26 96 ZM766 269 q36 -33 79 -58 q-74 -89 -177 -152 q-103 -63 -229 -83 q-3 43 -20 82 q130 11 214 73 q81 57 133 138 ZM680 360 q38 -33 81 -56 q-62 -76 -146 -128.5 q-84 -52.5 -185 -68.5 q-4 42 -21 82 q92 2 162.5 52 q70.5 50 108.5 119 ZM378 312 q-3 -146 8 -282 q-49 5 -99 0 q8 84 8 168 l0 302 q0 43 -8 86 q50 -6 99 0 q-6 -31 -7 -63 q78 42 129 117.5 q51 75.5 64 168.5 q47 -16 96 -22 q-14 -50 -37 -96 l298 0 q-75 -128 -181 -233 q107 -93 259 -129 q-47 -35 -61 -91 q-153 45 -261 161 q-110 -95 -239 -160 q-29 41 -68 73 ZM626 627 q23 -59 65 -111 q50 51 89 111 l-154 0 ZM632 463 q-39 56 -67 121 q-71 -90 -169 -145 q-7 18 -18 34 l0 -137 q141 36 254 127 ZM343 808 q-45 -169 -110 -319 l0 -446 q0 -100 8 -199 q-50 5 -100 0 q9 99 9 199 l0 291 q-40 -61 -88 -113 q-33 40 -78 66 q139 136 210 329 q35 103 41 212 q50 -16 108 -20 Z" /><glyph glyph-name="uni4FEF" unicode="&#x4fef;" d="M695 165 q-41 87 -110 161 l71 46 q77 -82 123 -179 l-84 -28 ZM686 -51 q68 -10 108 -2 q16 2 17 19 l0 428 l-247 0 l2 -374 q0 -88 8 -176 q-49 5 -97 0 q7 88 7 176 l-1 303 q-26 -39 -55 -74 q-10 11 -22 20 q9 -278 -143 -429 q-29 41 -70 68 q137 93 131 325 l0 462 l299 1 l-99 110 l72 45 l116 -129 l-40 -26 l124 1 q93 0 186 6 q-3 -37 1 -73 q-94 5 -187 5 l-256 -1 q40 -13 82 -18 q-28 -86 -63 -160 l252 0 q3 83 -8 154 q49 -5 98 0 q-12 -71 -9 -154 q55 1 110 6 q-4 -37 0 -74 q-55 5 -110 6 l0 -415 q6 -106 -74 -119 q-53 -9 -103 -4 l-24 0 q4 47 -5 93 ZM406 634 l0 -286 q95 121 121 286 l-121 0 ZM298 808 q-39 -169 -96 -319 l0 -446 q0 -100 7 -199 q-43 5 -86 0 q7 99 7 199 l0 291 q-34 -61 -76 -113 q-29 40 -68 66 q121 136 182 329 q31 103 36 212 q43 -16 94 -20 Z" /><glyph glyph-name="uni4FF1" unicode="&#x4ff1;" d="M899 -136 q-85 105 -186 200 l67 50 q105 -99 194 -207 l-75 -43 ZM464 109 q43 -22 90 -35 q-39 -84 -106 -148 q-67 -64 -155 -97 q-11 41 -36 75 q77 16 131.5 73.5 q54.5 57.5 75.5 131.5 ZM1002 187 q-4 -36 0 -73 q-108 6 -217 6 l-439 0 q-32 0 -63 -6 q4 37 0 73 q63 -9 136 -6 l-2 606 l457 0 l0 -605 q64 2 128 5 ZM792 634 l0 92 l-293 0 l0 -92 l293 0 ZM792 484 l0 88 l-293 0 l1 -88 l292 0 ZM792 337 l0 86 l-292 0 l0 -86 l292 0 ZM792 181 l0 95 l-292 0 l1 -95 l291 0 ZM357 808 q-46 -169 -115 -319 l0 -446 q0 -100 9 -199 q-52 5 -104 0 q9 99 9 199 l0 291 q-41 -61 -91 -113 q-35 40 -82 66 q145 136 219 329 q37 103 42 212 q53 -16 113 -20 Z" /></font>
</defs>
</svg>
